<mxfile host="65bd71144e">
    <diagram id="dqenSdSLRRkjRAQdouFI" name="Page-1">
        <mxGraphModel dx="4873" dy="4998" grid="1" gridSize="10" guides="1" tooltips="1" connect="1" arrows="1" fold="1" page="0" pageScale="1" pageWidth="850" pageHeight="1100" math="0" shadow="0">
            <root>
                <mxCell id="0"/>
                <mxCell id="1" parent="0"/>
                <mxCell id="386" value="" style="rounded=1;whiteSpace=wrap;html=1;fontSize=40;fontColor=#ffffff;fillColor=#60a917;strokeColor=#2D7600;" vertex="1" parent="1">
                    <mxGeometry x="2700" y="40" width="1240" height="710" as="geometry"/>
                </mxCell>
                <mxCell id="245" value="" style="rounded=1;whiteSpace=wrap;html=1;fontSize=40;fontColor=#ffffff;fillColor=#60a917;strokeColor=#2D7600;" parent="1" vertex="1">
                    <mxGeometry x="1220" y="20" width="1240" height="710" as="geometry"/>
                </mxCell>
                <mxCell id="242" value="" style="rounded=1;whiteSpace=wrap;html=1;fontSize=40;fontColor=#ffffff;fillColor=#60a917;strokeColor=#2D7600;" parent="1" vertex="1">
                    <mxGeometry x="2765" y="-760" width="1030" height="710" as="geometry"/>
                </mxCell>
                <mxCell id="224" value="" style="rounded=1;whiteSpace=wrap;html=1;fillColor=#7D7540;fontColor=#000000;strokeColor=#B09500;" parent="1" vertex="1">
                    <mxGeometry x="500" y="-1510" width="300" height="435" as="geometry"/>
                </mxCell>
                <mxCell id="106" value="" style="rounded=1;whiteSpace=wrap;html=1;fontSize=40;fontColor=#ffffff;fillColor=#60a917;strokeColor=#2D7600;" parent="1" vertex="1">
                    <mxGeometry x="1195" y="-710" width="1130" height="645" as="geometry"/>
                </mxCell>
                <mxCell id="79" value="" style="rounded=1;whiteSpace=wrap;html=1;fontSize=40;fontColor=#ffffff;fillColor=#60a917;strokeColor=#2D7600;" parent="1" vertex="1">
                    <mxGeometry x="2580" y="-1590" width="1930" height="710" as="geometry"/>
                </mxCell>
                <mxCell id="78" value="" style="rounded=1;whiteSpace=wrap;html=1;fontSize=40;fontColor=#ffffff;fillColor=#60a917;strokeColor=#2D7600;" parent="1" vertex="1">
                    <mxGeometry x="1180" y="-1610" width="1240" height="710" as="geometry"/>
                </mxCell>
                <mxCell id="2" value="" style="rounded=0;whiteSpace=wrap;html=1;" parent="1" vertex="1">
                    <mxGeometry x="1360" y="-1500" width="240" height="480" as="geometry"/>
                </mxCell>
                <mxCell id="4" value="admin" style="rounded=1;whiteSpace=wrap;html=1;align=left;fillColor=#a20025;fontColor=#ffffff;strokeColor=#6F0000;" parent="1" vertex="1">
                    <mxGeometry x="1390" y="-1290" width="180" height="30" as="geometry"/>
                </mxCell>
                <mxCell id="5" value="****************" style="rounded=1;whiteSpace=wrap;html=1;align=left;fillColor=#a20025;fontColor=#ffffff;strokeColor=#6F0000;" parent="1" vertex="1">
                    <mxGeometry x="1390" y="-1210" width="180" height="30" as="geometry"/>
                </mxCell>
                <mxCell id="6" value="Usuario" style="text;html=1;strokeColor=none;fillColor=none;align=left;verticalAlign=middle;whiteSpace=wrap;rounded=0;" parent="1" vertex="1">
                    <mxGeometry x="1390" y="-1320" width="60" height="30" as="geometry"/>
                </mxCell>
                <mxCell id="7" value="Contraseña" style="text;html=1;strokeColor=none;fillColor=none;align=left;verticalAlign=middle;whiteSpace=wrap;rounded=0;" parent="1" vertex="1">
                    <mxGeometry x="1390" y="-1240" width="100" height="30" as="geometry"/>
                </mxCell>
                <mxCell id="8" value="LOGO" style="ellipse;whiteSpace=wrap;html=1;aspect=fixed;fillColor=#d80073;fontColor=#ffffff;strokeColor=#A50040;" parent="1" vertex="1">
                    <mxGeometry x="1440" y="-1420" width="80" height="80" as="geometry"/>
                </mxCell>
                <mxCell id="9" value="ENTRAR" style="rounded=1;whiteSpace=wrap;html=1;fillColor=#1ba1e2;fontColor=#ffffff;strokeColor=#006EAF;" parent="1" vertex="1">
                    <mxGeometry x="1420" y="-1150" width="120" height="30" as="geometry"/>
                </mxCell>
                <mxCell id="11" value="&lt;h1 style=&quot;text-align: left;&quot;&gt;&lt;font color=&quot;#000000&quot;&gt;Componentes y comportamiento de LoginPage&lt;/font&gt;&lt;/h1&gt;&lt;p style=&quot;text-align: left;&quot;&gt;&lt;font color=&quot;#000000&quot;&gt;&amp;gt; img (logo)&lt;/font&gt;&lt;/p&gt;&lt;p style=&quot;text-align: left;&quot;&gt;&lt;font color=&quot;#000000&quot;&gt;&amp;gt; LoginForm (form):&lt;/font&gt;&lt;/p&gt;&lt;p style=&quot;text-align: left;&quot;&gt;&lt;span style=&quot;background-color: initial;&quot;&gt;&lt;font color=&quot;#000000&quot;&gt;&lt;span style=&quot;white-space: pre;&quot;&gt;&#9;&lt;/span&gt;- Si los datos enviados son correctos, entonces redirige a /myfeed &lt;span style=&quot;white-space: pre;&quot;&gt;&#9;&lt;/span&gt;del usuario&lt;/font&gt;&lt;/span&gt;&lt;/p&gt;&lt;p style=&quot;text-align: left;&quot;&gt;&lt;span style=&quot;background-color: initial;&quot;&gt;&lt;font color=&quot;#000000&quot;&gt;&lt;span style=&quot;white-space: pre;&quot;&gt;&#9;&lt;/span&gt;- Si los datos enviados son incorrectos, entonces renderiza &lt;span style=&quot;white-space: pre;&quot;&gt;&#9;&lt;/span&gt;UnsuccessfulLoginMessage&lt;/font&gt;&lt;/span&gt;&lt;/p&gt;&lt;p style=&quot;text-align: left;&quot;&gt;&lt;font color=&quot;#000000&quot;&gt;&lt;span style=&quot;white-space: pre;&quot;&gt;&#9;&lt;/span&gt;&amp;gt;&amp;nbsp;NormalInput (input para usuario)&lt;br&gt;&lt;/font&gt;&lt;/p&gt;&lt;p style=&quot;text-align: left;&quot;&gt;&lt;font color=&quot;#000000&quot;&gt;&lt;span style=&quot;white-space: pre;&quot;&gt;&#9;&lt;/span&gt;&amp;gt;&amp;nbsp;NormalInput (input para contraseña)&lt;br&gt;&lt;/font&gt;&lt;/p&gt;&lt;p style=&quot;text-align: left;&quot;&gt;&lt;font color=&quot;#000000&quot;&gt;&lt;span style=&quot;white-space: pre;&quot;&gt;&#9;&lt;/span&gt;&amp;gt;&amp;nbsp;LoginButton (button para enviar datos del formulario&lt;span style=&quot;background-color: initial;&quot;&gt;)&lt;/span&gt;&lt;/font&gt;&lt;/p&gt;&lt;p style=&quot;text-align: left;&quot;&gt;&lt;font color=&quot;#000000&quot;&gt;&amp;gt; GoToRegisterPageButton (button que redirige a /register)&lt;/font&gt;&lt;/p&gt;&lt;p style=&quot;text-align: left;&quot;&gt;&lt;font color=&quot;#000000&quot;&gt;&amp;gt; UnsuccessfulLoginMessage (div):&lt;/font&gt;&lt;/p&gt;&lt;p style=&quot;text-align: left;&quot;&gt;&lt;font color=&quot;#000000&quot;&gt;&lt;span style=&quot;white-space: pre;&quot;&gt;&#9;&lt;/span&gt;&amp;gt;&amp;nbsp;p (mensaje de error)&lt;br&gt;&lt;/font&gt;&lt;/p&gt;&lt;p style=&quot;text-align: left;&quot;&gt;&lt;font color=&quot;#000000&quot;&gt;&lt;span style=&quot;white-space: pre;&quot;&gt;&#9;&lt;/span&gt;&amp;gt;&amp;nbsp;button (oculta UnsuccessfulLoginMessage)&lt;br&gt;&lt;/font&gt;&lt;/p&gt;&lt;p style=&quot;text-align: left;&quot;&gt;&lt;span style=&quot;white-space: pre;&quot;&gt;&lt;font color=&quot;#000000&quot;&gt;&#9;&lt;/font&gt;&lt;/span&gt;&lt;br&gt;&lt;/p&gt;" style="text;html=1;strokeColor=none;fillColor=none;spacing=5;spacingTop=-20;whiteSpace=wrap;overflow=hidden;rounded=0;align=center;" parent="1" vertex="1">
                    <mxGeometry x="1920" y="-1500" width="400" height="480" as="geometry"/>
                </mxCell>
                <mxCell id="12" value="/login" style="text;html=1;strokeColor=none;fillColor=none;align=center;verticalAlign=middle;whiteSpace=wrap;rounded=0;" parent="1" vertex="1">
                    <mxGeometry x="1360" y="-1530" width="60" height="30" as="geometry"/>
                </mxCell>
                <mxCell id="13" value="" style="rounded=0;whiteSpace=wrap;html=1;" parent="1" vertex="1">
                    <mxGeometry x="2630" y="-1475" width="240" height="480" as="geometry"/>
                </mxCell>
                <mxCell id="14" value="&lt;h1 style=&quot;text-align: left;&quot;&gt;&lt;font color=&quot;#000000&quot;&gt;Componentes y comportamiento&amp;nbsp; de RegisterPage&lt;/font&gt;&lt;/h1&gt;&lt;p style=&quot;text-align: left;&quot;&gt;&lt;font color=&quot;#000000&quot;&gt;&amp;gt; h1 (título)&lt;/font&gt;&lt;/p&gt;&lt;p style=&quot;text-align: left;&quot;&gt;&lt;font color=&quot;#000000&quot;&gt;&amp;gt; RegisterForm (form):&lt;/font&gt;&lt;/p&gt;&lt;p style=&quot;text-align: left;&quot;&gt;&lt;font color=&quot;#000000&quot;&gt;&lt;span style=&quot;&quot;&gt;&#9;&lt;/span&gt;&lt;span style=&quot;background-color: initial;&quot;&gt;&lt;span style=&quot;white-space: pre;&quot;&gt;&#9;&lt;/span&gt;- Si los datos enviados son correctos, entonces renderiza &lt;span style=&quot;white-space: pre;&quot;&gt;&#9;&lt;/span&gt;SuccessfulRegisterMessage y crea el usuario en backend&lt;/span&gt;&lt;br&gt;&lt;/font&gt;&lt;/p&gt;&lt;p style=&quot;text-align: left;&quot;&gt;&lt;font color=&quot;#000000&quot;&gt;&lt;span style=&quot;&quot;&gt;&#9;&lt;/span&gt;&lt;span style=&quot;white-space: pre;&quot;&gt;&#9;&lt;/span&gt;- Si los datos enviados son incorrectos, entonces renderiza &lt;span style=&quot;white-space: pre;&quot;&gt;&#9;&lt;/span&gt;UnsuccessfulRegisterMessage con el respectivo mensaje de error&lt;/font&gt;&lt;/p&gt;&lt;p style=&quot;text-align: left;&quot;&gt;&lt;font color=&quot;#000000&quot;&gt;&lt;span style=&quot;&quot;&gt;&#9;&lt;/span&gt;&lt;span style=&quot;white-space: pre;&quot;&gt;&#9;&lt;/span&gt;&amp;gt;&amp;nbsp;NormalInput (input para usuario)&lt;br&gt;&lt;/font&gt;&lt;/p&gt;&lt;p style=&quot;text-align: left;&quot;&gt;&lt;font color=&quot;#000000&quot;&gt;&lt;span style=&quot;&quot;&gt;&#9;&lt;/span&gt;&lt;span style=&quot;white-space: pre;&quot;&gt;&#9;&lt;/span&gt;&amp;gt;&amp;nbsp;NormalInput (input para contraseña)&lt;br&gt;&lt;/font&gt;&lt;/p&gt;&lt;p style=&quot;text-align: left;&quot;&gt;&lt;font color=&quot;#000000&quot;&gt;&lt;span style=&quot;&quot;&gt;&#9;&lt;/span&gt;&lt;span style=&quot;white-space: pre;&quot;&gt;&#9;&lt;/span&gt;&amp;gt;&amp;nbsp;NormalInput (input para repetir contraseña)&lt;br&gt;&lt;/font&gt;&lt;/p&gt;&lt;p style=&quot;text-align: left;&quot;&gt;&lt;font color=&quot;#000000&quot;&gt;&lt;span style=&quot;&quot;&gt;&#9;&lt;/span&gt;&lt;span style=&quot;white-space: pre;&quot;&gt;&#9;&lt;/span&gt;&amp;gt;&amp;nbsp;RegisterButton (button para enviar datos del formulario&lt;span style=&quot;background-color: initial;&quot;&gt;)&lt;/span&gt;&lt;/font&gt;&lt;/p&gt;&lt;p style=&quot;text-align: left;&quot;&gt;&lt;span style=&quot;background-color: initial;&quot;&gt;&lt;font color=&quot;#000000&quot;&gt;&lt;span style=&quot;&quot;&gt;&#9;&lt;/span&gt;&lt;span style=&quot;white-space: pre;&quot;&gt;&#9;&lt;/span&gt;&amp;gt;&amp;nbsp;GoToLoginPageButton (button para cancelar el registro y regresar a /login)&lt;br&gt;&lt;/font&gt;&lt;/span&gt;&lt;/p&gt;&lt;p style=&quot;text-align: left;&quot;&gt;&lt;span style=&quot;background-color: initial;&quot;&gt;&lt;font color=&quot;#000000&quot;&gt;&amp;gt; SuccessfulRegisterMessage (div):&lt;/font&gt;&lt;/span&gt;&lt;/p&gt;&lt;p style=&quot;text-align: left;&quot;&gt;&lt;span style=&quot;background-color: initial;&quot;&gt;&lt;font color=&quot;#000000&quot;&gt;&lt;span style=&quot;&quot;&gt;&#9;&lt;/span&gt;&lt;span style=&quot;white-space: pre;&quot;&gt;&#9;&lt;/span&gt;&amp;gt;&amp;nbsp;p (mensaje de éxito)&lt;br&gt;&lt;/font&gt;&lt;/span&gt;&lt;/p&gt;&lt;p style=&quot;text-align: left;&quot;&gt;&lt;span style=&quot;background-color: initial;&quot;&gt;&lt;font color=&quot;#000000&quot;&gt;&lt;span style=&quot;&quot;&gt;&#9;&lt;/span&gt;&lt;span style=&quot;white-space: pre;&quot;&gt;&#9;&lt;/span&gt;&amp;gt;&amp;nbsp;GoToLoginPageButton (button para regresar a /login)&lt;br&gt;&lt;/font&gt;&lt;/span&gt;&lt;/p&gt;&lt;p style=&quot;text-align: left;&quot;&gt;&lt;span style=&quot;background-color: initial;&quot;&gt;&lt;font color=&quot;#000000&quot;&gt;&amp;gt; UnsuccessfulRegisterMessage (div):&lt;/font&gt;&lt;/span&gt;&lt;/p&gt;&lt;p style=&quot;text-align: left;&quot;&gt;&lt;span style=&quot;background-color: initial;&quot;&gt;&lt;font color=&quot;#000000&quot;&gt;&lt;span style=&quot;&quot;&gt;&#9;&lt;/span&gt;&lt;span style=&quot;white-space: pre;&quot;&gt;&#9;&lt;/span&gt;&amp;gt;&amp;nbsp;p (mensaje de error)&lt;br&gt;&lt;/font&gt;&lt;/span&gt;&lt;/p&gt;&lt;p style=&quot;text-align: left;&quot;&gt;&lt;span style=&quot;background-color: initial;&quot;&gt;&lt;font color=&quot;#000000&quot;&gt;&lt;span style=&quot;&quot;&gt;&#9;&lt;/span&gt;&lt;span style=&quot;white-space: pre;&quot;&gt;&#9;&lt;/span&gt;&amp;gt;&amp;nbsp;button (oculta UnsuccessfulRegisterMessage)&lt;/font&gt;&lt;br&gt;&lt;/span&gt;&lt;/p&gt;" style="text;html=1;strokeColor=none;fillColor=none;spacing=5;spacingTop=-20;whiteSpace=wrap;overflow=hidden;rounded=0;align=center;" parent="1" vertex="1">
                    <mxGeometry x="4040" y="-1480" width="470" height="555" as="geometry"/>
                </mxCell>
                <mxCell id="15" value="admin" style="rounded=1;whiteSpace=wrap;html=1;align=left;fillColor=#a20025;fontColor=#ffffff;strokeColor=#6F0000;" parent="1" vertex="1">
                    <mxGeometry x="2660" y="-1315" width="180" height="30" as="geometry"/>
                </mxCell>
                <mxCell id="16" value="**************" style="rounded=1;whiteSpace=wrap;html=1;align=left;fillColor=#a20025;fontColor=#ffffff;strokeColor=#6F0000;" parent="1" vertex="1">
                    <mxGeometry x="2660" y="-1235" width="180" height="30" as="geometry"/>
                </mxCell>
                <mxCell id="17" value="**************" style="rounded=1;whiteSpace=wrap;html=1;align=left;fillColor=#a20025;fontColor=#ffffff;strokeColor=#6F0000;" parent="1" vertex="1">
                    <mxGeometry x="2660" y="-1155" width="180" height="30" as="geometry"/>
                </mxCell>
                <mxCell id="18" value="Usuario" style="text;html=1;strokeColor=none;fillColor=none;align=left;verticalAlign=middle;whiteSpace=wrap;rounded=0;" parent="1" vertex="1">
                    <mxGeometry x="2660" y="-1345" width="60" height="30" as="geometry"/>
                </mxCell>
                <mxCell id="19" value="Contraseña" style="text;html=1;strokeColor=none;fillColor=none;align=left;verticalAlign=middle;whiteSpace=wrap;rounded=0;" parent="1" vertex="1">
                    <mxGeometry x="2660" y="-1265" width="80" height="30" as="geometry"/>
                </mxCell>
                <mxCell id="20" value="Repetir contraseña" style="text;html=1;strokeColor=none;fillColor=none;align=left;verticalAlign=middle;whiteSpace=wrap;rounded=0;" parent="1" vertex="1">
                    <mxGeometry x="2660" y="-1185" width="120" height="30" as="geometry"/>
                </mxCell>
                <mxCell id="21" value="ACEPTAR" style="rounded=1;whiteSpace=wrap;html=1;fillColor=#1ba1e2;fontColor=#ffffff;strokeColor=#006EAF;" parent="1" vertex="1">
                    <mxGeometry x="2690" y="-1095" width="120" height="30" as="geometry"/>
                </mxCell>
                <mxCell id="23" value="Registro" style="rounded=0;whiteSpace=wrap;html=1;" parent="1" vertex="1">
                    <mxGeometry x="2690" y="-1425" width="120" height="60" as="geometry"/>
                </mxCell>
                <mxCell id="24" value="/register" style="text;html=1;strokeColor=none;fillColor=none;align=center;verticalAlign=middle;whiteSpace=wrap;rounded=0;" parent="1" vertex="1">
                    <mxGeometry x="2630" y="-1505" width="60" height="30" as="geometry"/>
                </mxCell>
                <mxCell id="25" value="" style="rounded=0;whiteSpace=wrap;html=1;" parent="1" vertex="1">
                    <mxGeometry x="2910" y="-1475" width="240" height="480" as="geometry"/>
                </mxCell>
                <mxCell id="26" value="usuario" style="rounded=1;whiteSpace=wrap;html=1;align=left;" parent="1" vertex="1">
                    <mxGeometry x="2940" y="-1315" width="180" height="30" as="geometry"/>
                </mxCell>
                <mxCell id="27" value="123" style="rounded=1;whiteSpace=wrap;html=1;align=left;" parent="1" vertex="1">
                    <mxGeometry x="2940" y="-1235" width="180" height="30" as="geometry"/>
                </mxCell>
                <mxCell id="28" value="123" style="rounded=1;whiteSpace=wrap;html=1;align=left;" parent="1" vertex="1">
                    <mxGeometry x="2940" y="-1155" width="180" height="30" as="geometry"/>
                </mxCell>
                <mxCell id="29" value="Usuario" style="text;html=1;strokeColor=none;fillColor=none;align=left;verticalAlign=middle;whiteSpace=wrap;rounded=0;" parent="1" vertex="1">
                    <mxGeometry x="2940" y="-1345" width="60" height="30" as="geometry"/>
                </mxCell>
                <mxCell id="30" value="Contraseña" style="text;html=1;strokeColor=none;fillColor=none;align=left;verticalAlign=middle;whiteSpace=wrap;rounded=0;" parent="1" vertex="1">
                    <mxGeometry x="2940" y="-1265" width="80" height="30" as="geometry"/>
                </mxCell>
                <mxCell id="31" value="Repetir contraseña" style="text;html=1;strokeColor=none;fillColor=none;align=left;verticalAlign=middle;whiteSpace=wrap;rounded=0;" parent="1" vertex="1">
                    <mxGeometry x="2940" y="-1185" width="120" height="30" as="geometry"/>
                </mxCell>
                <mxCell id="32" value="ACEPTAR" style="rounded=1;whiteSpace=wrap;html=1;" parent="1" vertex="1">
                    <mxGeometry x="2970" y="-1095" width="120" height="30" as="geometry"/>
                </mxCell>
                <mxCell id="33" value="Registro" style="rounded=0;whiteSpace=wrap;html=1;" parent="1" vertex="1">
                    <mxGeometry x="2970" y="-1425" width="120" height="60" as="geometry"/>
                </mxCell>
                <mxCell id="36" value="REGISTRO COMPLETADO&lt;br&gt;&lt;br&gt;¡Bienvenido, admin!" style="rounded=0;whiteSpace=wrap;html=1;" parent="1" vertex="1">
                    <mxGeometry x="2930" y="-1445" width="200" height="420" as="geometry"/>
                </mxCell>
                <mxCell id="37" value="CANCELAR" style="rounded=1;whiteSpace=wrap;html=1;fillColor=#1ba1e2;fontColor=#ffffff;strokeColor=#006EAF;" parent="1" vertex="1">
                    <mxGeometry x="2690" y="-1055" width="120" height="30" as="geometry"/>
                </mxCell>
                <mxCell id="38" value="OK" style="rounded=1;whiteSpace=wrap;html=1;fillColor=#1ba1e2;fontColor=#ffffff;strokeColor=#006EAF;" parent="1" vertex="1">
                    <mxGeometry x="2970" y="-1085" width="120" height="30" as="geometry"/>
                </mxCell>
                <mxCell id="39" value="" style="rounded=0;whiteSpace=wrap;html=1;" parent="1" vertex="1">
                    <mxGeometry x="3190" y="-1475" width="240" height="480" as="geometry"/>
                </mxCell>
                <mxCell id="40" value="usuario" style="rounded=1;whiteSpace=wrap;html=1;align=left;" parent="1" vertex="1">
                    <mxGeometry x="3220" y="-1315" width="180" height="30" as="geometry"/>
                </mxCell>
                <mxCell id="41" value="123" style="rounded=1;whiteSpace=wrap;html=1;align=left;" parent="1" vertex="1">
                    <mxGeometry x="3220" y="-1235" width="180" height="30" as="geometry"/>
                </mxCell>
                <mxCell id="42" value="123" style="rounded=1;whiteSpace=wrap;html=1;align=left;" parent="1" vertex="1">
                    <mxGeometry x="3220" y="-1155" width="180" height="30" as="geometry"/>
                </mxCell>
                <mxCell id="43" value="Usuario" style="text;html=1;strokeColor=none;fillColor=none;align=left;verticalAlign=middle;whiteSpace=wrap;rounded=0;" parent="1" vertex="1">
                    <mxGeometry x="3220" y="-1345" width="60" height="30" as="geometry"/>
                </mxCell>
                <mxCell id="44" value="Contraseña" style="text;html=1;strokeColor=none;fillColor=none;align=left;verticalAlign=middle;whiteSpace=wrap;rounded=0;" parent="1" vertex="1">
                    <mxGeometry x="3220" y="-1265" width="80" height="30" as="geometry"/>
                </mxCell>
                <mxCell id="45" value="Repetir contraseña" style="text;html=1;strokeColor=none;fillColor=none;align=left;verticalAlign=middle;whiteSpace=wrap;rounded=0;" parent="1" vertex="1">
                    <mxGeometry x="3220" y="-1185" width="120" height="30" as="geometry"/>
                </mxCell>
                <mxCell id="46" value="ACEPTAR" style="rounded=1;whiteSpace=wrap;html=1;" parent="1" vertex="1">
                    <mxGeometry x="3250" y="-1095" width="120" height="30" as="geometry"/>
                </mxCell>
                <mxCell id="47" value="Registro" style="rounded=0;whiteSpace=wrap;html=1;" parent="1" vertex="1">
                    <mxGeometry x="3250" y="-1425" width="120" height="60" as="geometry"/>
                </mxCell>
                <mxCell id="48" value="YA EXISTE UN USUARIO&lt;br&gt;CON ESE NOMBRE" style="rounded=0;whiteSpace=wrap;html=1;" parent="1" vertex="1">
                    <mxGeometry x="3210" y="-1445" width="200" height="420" as="geometry"/>
                </mxCell>
                <mxCell id="49" value="OK" style="rounded=1;whiteSpace=wrap;html=1;fillColor=#1ba1e2;fontColor=#ffffff;strokeColor=#006EAF;" parent="1" vertex="1">
                    <mxGeometry x="3250" y="-1085" width="120" height="30" as="geometry"/>
                </mxCell>
                <mxCell id="51" value="" style="rounded=0;whiteSpace=wrap;html=1;" parent="1" vertex="1">
                    <mxGeometry x="3470" y="-1475" width="240" height="480" as="geometry"/>
                </mxCell>
                <mxCell id="52" value="usuario" style="rounded=1;whiteSpace=wrap;html=1;align=left;" parent="1" vertex="1">
                    <mxGeometry x="3500" y="-1315" width="180" height="30" as="geometry"/>
                </mxCell>
                <mxCell id="53" value="123" style="rounded=1;whiteSpace=wrap;html=1;align=left;" parent="1" vertex="1">
                    <mxGeometry x="3500" y="-1235" width="180" height="30" as="geometry"/>
                </mxCell>
                <mxCell id="54" value="123" style="rounded=1;whiteSpace=wrap;html=1;align=left;" parent="1" vertex="1">
                    <mxGeometry x="3500" y="-1155" width="180" height="30" as="geometry"/>
                </mxCell>
                <mxCell id="55" value="Usuario" style="text;html=1;strokeColor=none;fillColor=none;align=left;verticalAlign=middle;whiteSpace=wrap;rounded=0;" parent="1" vertex="1">
                    <mxGeometry x="3500" y="-1345" width="60" height="30" as="geometry"/>
                </mxCell>
                <mxCell id="56" value="Contraseña" style="text;html=1;strokeColor=none;fillColor=none;align=left;verticalAlign=middle;whiteSpace=wrap;rounded=0;" parent="1" vertex="1">
                    <mxGeometry x="3500" y="-1265" width="80" height="30" as="geometry"/>
                </mxCell>
                <mxCell id="57" value="Repetir contraseña" style="text;html=1;strokeColor=none;fillColor=none;align=left;verticalAlign=middle;whiteSpace=wrap;rounded=0;" parent="1" vertex="1">
                    <mxGeometry x="3500" y="-1185" width="120" height="30" as="geometry"/>
                </mxCell>
                <mxCell id="58" value="ACEPTAR" style="rounded=1;whiteSpace=wrap;html=1;" parent="1" vertex="1">
                    <mxGeometry x="3530" y="-1095" width="120" height="30" as="geometry"/>
                </mxCell>
                <mxCell id="59" value="Registro" style="rounded=0;whiteSpace=wrap;html=1;" parent="1" vertex="1">
                    <mxGeometry x="3530" y="-1425" width="120" height="60" as="geometry"/>
                </mxCell>
                <mxCell id="60" value="LA REPETICIÓN DE&lt;br&gt;CONTRASEÑA NO&lt;br&gt;COINCIDE" style="rounded=0;whiteSpace=wrap;html=1;" parent="1" vertex="1">
                    <mxGeometry x="3490" y="-1445" width="200" height="420" as="geometry"/>
                </mxCell>
                <mxCell id="61" value="OK" style="rounded=1;whiteSpace=wrap;html=1;fillColor=#1ba1e2;fontColor=#ffffff;strokeColor=#006EAF;" parent="1" vertex="1">
                    <mxGeometry x="3530" y="-1085" width="120" height="30" as="geometry"/>
                </mxCell>
                <mxCell id="63" value="" style="rounded=0;whiteSpace=wrap;html=1;" parent="1" vertex="1">
                    <mxGeometry x="1640" y="-1500" width="240" height="480" as="geometry"/>
                </mxCell>
                <mxCell id="64" value="" style="rounded=1;whiteSpace=wrap;html=1;" parent="1" vertex="1">
                    <mxGeometry x="1670" y="-1290" width="180" height="30" as="geometry"/>
                </mxCell>
                <mxCell id="65" value="" style="rounded=1;whiteSpace=wrap;html=1;" parent="1" vertex="1">
                    <mxGeometry x="1670" y="-1210" width="180" height="30" as="geometry"/>
                </mxCell>
                <mxCell id="66" value="Usuario" style="text;html=1;strokeColor=none;fillColor=none;align=left;verticalAlign=middle;whiteSpace=wrap;rounded=0;" parent="1" vertex="1">
                    <mxGeometry x="1670" y="-1320" width="60" height="30" as="geometry"/>
                </mxCell>
                <mxCell id="67" value="Contraseña" style="text;html=1;strokeColor=none;fillColor=none;align=left;verticalAlign=middle;whiteSpace=wrap;rounded=0;" parent="1" vertex="1">
                    <mxGeometry x="1670" y="-1240" width="100" height="30" as="geometry"/>
                </mxCell>
                <mxCell id="68" value="LOGO" style="ellipse;whiteSpace=wrap;html=1;aspect=fixed;" parent="1" vertex="1">
                    <mxGeometry x="1720" y="-1420" width="80" height="80" as="geometry"/>
                </mxCell>
                <mxCell id="69" value="ENTRAR" style="rounded=1;whiteSpace=wrap;html=1;" parent="1" vertex="1">
                    <mxGeometry x="1700" y="-1150" width="120" height="30" as="geometry"/>
                </mxCell>
                <mxCell id="70" value="Crea una cuenta aquí" style="text;html=1;strokeColor=none;fillColor=none;align=center;verticalAlign=middle;whiteSpace=wrap;rounded=0;" parent="1" vertex="1">
                    <mxGeometry x="1705" y="-1090" width="110" height="30" as="geometry"/>
                </mxCell>
                <mxCell id="71" value="/login" style="text;html=1;strokeColor=none;fillColor=none;align=center;verticalAlign=middle;whiteSpace=wrap;rounded=0;" parent="1" vertex="1">
                    <mxGeometry x="1640" y="-1530" width="60" height="30" as="geometry"/>
                </mxCell>
                <mxCell id="72" value="DATOS INCORRECTOS" style="rounded=0;whiteSpace=wrap;html=1;" parent="1" vertex="1">
                    <mxGeometry x="1660" y="-1470" width="200" height="420" as="geometry"/>
                </mxCell>
                <mxCell id="73" value="OK" style="rounded=1;whiteSpace=wrap;html=1;fillColor=#1ba1e2;fontColor=#ffffff;strokeColor=#006EAF;" parent="1" vertex="1">
                    <mxGeometry x="1700" y="-1120" width="120" height="30" as="geometry"/>
                </mxCell>
                <mxCell id="80" value="" style="rounded=0;whiteSpace=wrap;html=1;" parent="1" vertex="1">
                    <mxGeometry x="3750" y="-1475" width="240" height="480" as="geometry"/>
                </mxCell>
                <mxCell id="81" value="usuario" style="rounded=1;whiteSpace=wrap;html=1;align=left;" parent="1" vertex="1">
                    <mxGeometry x="3780" y="-1315" width="180" height="30" as="geometry"/>
                </mxCell>
                <mxCell id="82" value="123" style="rounded=1;whiteSpace=wrap;html=1;align=left;" parent="1" vertex="1">
                    <mxGeometry x="3780" y="-1235" width="180" height="30" as="geometry"/>
                </mxCell>
                <mxCell id="83" value="123" style="rounded=1;whiteSpace=wrap;html=1;align=left;" parent="1" vertex="1">
                    <mxGeometry x="3780" y="-1155" width="180" height="30" as="geometry"/>
                </mxCell>
                <mxCell id="84" value="Usuario" style="text;html=1;strokeColor=none;fillColor=none;align=left;verticalAlign=middle;whiteSpace=wrap;rounded=0;" parent="1" vertex="1">
                    <mxGeometry x="3780" y="-1345" width="60" height="30" as="geometry"/>
                </mxCell>
                <mxCell id="85" value="Contraseña" style="text;html=1;strokeColor=none;fillColor=none;align=left;verticalAlign=middle;whiteSpace=wrap;rounded=0;" parent="1" vertex="1">
                    <mxGeometry x="3780" y="-1265" width="80" height="30" as="geometry"/>
                </mxCell>
                <mxCell id="86" value="Repetir contraseña" style="text;html=1;strokeColor=none;fillColor=none;align=left;verticalAlign=middle;whiteSpace=wrap;rounded=0;" parent="1" vertex="1">
                    <mxGeometry x="3780" y="-1185" width="120" height="30" as="geometry"/>
                </mxCell>
                <mxCell id="87" value="ACEPTAR" style="rounded=1;whiteSpace=wrap;html=1;" parent="1" vertex="1">
                    <mxGeometry x="3810" y="-1095" width="120" height="30" as="geometry"/>
                </mxCell>
                <mxCell id="88" value="Registro" style="rounded=0;whiteSpace=wrap;html=1;" parent="1" vertex="1">
                    <mxGeometry x="3810" y="-1425" width="120" height="60" as="geometry"/>
                </mxCell>
                <mxCell id="89" value="HAY DATOS VACÍOS" style="rounded=0;whiteSpace=wrap;html=1;" parent="1" vertex="1">
                    <mxGeometry x="3770" y="-1445" width="200" height="420" as="geometry"/>
                </mxCell>
                <mxCell id="90" value="OK" style="rounded=1;whiteSpace=wrap;html=1;fillColor=#1ba1e2;fontColor=#ffffff;strokeColor=#006EAF;" parent="1" vertex="1">
                    <mxGeometry x="3810" y="-1085" width="120" height="30" as="geometry"/>
                </mxCell>
                <mxCell id="92" value="" style="rounded=0;whiteSpace=wrap;html=1;" parent="1" vertex="1">
                    <mxGeometry x="1235" y="-585" width="240" height="480" as="geometry"/>
                </mxCell>
                <mxCell id="100" value="/myfeed" style="text;html=1;strokeColor=none;fillColor=none;align=center;verticalAlign=middle;whiteSpace=wrap;rounded=0;" parent="1" vertex="1">
                    <mxGeometry x="1235" y="-615" width="60" height="30" as="geometry"/>
                </mxCell>
                <mxCell id="105" value="CREAR CUENTA" style="rounded=1;whiteSpace=wrap;html=1;fillColor=#1ba1e2;fontColor=#ffffff;strokeColor=#006EAF;" parent="1" vertex="1">
                    <mxGeometry x="1420" y="-1090" width="120" height="30" as="geometry"/>
                </mxCell>
                <mxCell id="107" value="&lt;h1 style=&quot;text-align: left;&quot;&gt;&lt;font color=&quot;#000000&quot;&gt;Componentes y comportamiento de MyFeedPage&lt;/font&gt;&lt;/h1&gt;&lt;p style=&quot;text-align: left;&quot;&gt;&lt;font color=&quot;#000000&quot;&gt;- se muestran todos los posts subidos en la red social (menos los propios) ordenados cronólogicamente&lt;/font&gt;&lt;/p&gt;&lt;p style=&quot;text-align: left;&quot;&gt;&lt;font color=&quot;#000000&quot;&gt;&amp;gt; h1 (nombre de la red social)&lt;/font&gt;&lt;/p&gt;&lt;p style=&quot;text-align: left;&quot;&gt;&lt;font color=&quot;#000000&quot;&gt;&amp;gt; ShortPostCardContainer (main; con varios ShortPostCard):&lt;/font&gt;&lt;/p&gt;&lt;p style=&quot;text-align: left;&quot;&gt;&lt;font color=&quot;#000000&quot;&gt;&lt;span style=&quot;white-space: pre;&quot;&gt;&#9;&lt;/span&gt;&amp;gt; ShortPostCard (article):&lt;/font&gt;&lt;/p&gt;&lt;p style=&quot;text-align: left;&quot;&gt;&lt;font color=&quot;#000000&quot;&gt;&lt;span style=&quot;white-space: pre;&quot;&gt;&#9;&lt;/span&gt;&lt;span style=&quot;white-space: pre;&quot;&gt;&#9;&lt;/span&gt;&amp;gt; ShortProfileCard (section; apretarlo redirige a /profiles/:id):&lt;br&gt;&lt;/font&gt;&lt;/p&gt;&lt;p style=&quot;text-align: left;&quot;&gt;&lt;font color=&quot;#000000&quot;&gt;&lt;span style=&quot;white-space: pre;&quot;&gt;&#9;&lt;span style=&quot;white-space: pre;&quot;&gt;&#9;&lt;span style=&quot;white-space: pre;&quot;&gt;&#9;&lt;/span&gt;&lt;/span&gt;&lt;/span&gt;&amp;gt;&amp;nbsp;img (foto de perfil del autor del post)&lt;/font&gt;&lt;/p&gt;&lt;p style=&quot;text-align: left;&quot;&gt;&lt;font color=&quot;#000000&quot;&gt;&lt;span style=&quot;white-space: pre;&quot;&gt;&#9;&lt;span style=&quot;white-space: pre;&quot;&gt;&#9;&lt;span style=&quot;white-space: pre;&quot;&gt;&#9;&lt;/span&gt;&lt;/span&gt;&lt;/span&gt;&amp;gt;&amp;nbsp;h2 (nombre de usuario del autor del post)&lt;br&gt;&lt;/font&gt;&lt;/p&gt;&lt;p style=&quot;text-align: left;&quot;&gt;&lt;font color=&quot;#000000&quot;&gt;&lt;span style=&quot;white-space: pre;&quot;&gt;&#9;&lt;span style=&quot;white-space: pre;&quot;&gt;&#9;&lt;/span&gt;&amp;gt;&lt;/span&gt;&amp;nbsp;img (imagen del post)&lt;/font&gt;&lt;/p&gt;&lt;p style=&quot;text-align: left;&quot;&gt;&lt;font color=&quot;#000000&quot;&gt;&lt;span style=&quot;white-space: pre;&quot;&gt;&#9;&lt;/span&gt;&lt;span style=&quot;white-space: pre;&quot;&gt;&#9;&lt;/span&gt;&amp;gt;&amp;nbsp;p (cantidad de likes)&lt;br&gt;&lt;/font&gt;&lt;/p&gt;&lt;p style=&quot;text-align: left;&quot;&gt;&lt;font color=&quot;#000000&quot;&gt;&lt;span style=&quot;white-space: pre;&quot;&gt;&#9;&lt;/span&gt;&lt;span style=&quot;white-space: pre;&quot;&gt;&#9;&lt;/span&gt;&amp;gt;&amp;nbsp;p (descripción del post)&lt;br&gt;&lt;/font&gt;&lt;/p&gt;&lt;p style=&quot;text-align: left;&quot;&gt;&lt;font color=&quot;#000000&quot;&gt;&lt;span style=&quot;white-space: pre;&quot;&gt;&#9;&lt;/span&gt;&lt;span style=&quot;white-space: pre;&quot;&gt;&#9;&lt;/span&gt;&amp;gt;&amp;nbsp;p (cantidad de comentarios)&lt;br&gt;&lt;/font&gt;&lt;/p&gt;&lt;p style=&quot;text-align: left;&quot;&gt;&lt;font color=&quot;#000000&quot;&gt;&lt;span style=&quot;white-space: pre;&quot;&gt;&#9;&lt;/span&gt;&lt;span style=&quot;white-space: pre;&quot;&gt;&#9;&lt;/span&gt;&amp;gt;&amp;nbsp;LikeButton (button para dar me gusta, aumenta la cantidad de likes de ese post)&lt;br&gt;&lt;/font&gt;&lt;/p&gt;&lt;p style=&quot;text-align: left;&quot;&gt;&lt;font color=&quot;#000000&quot;&gt;&lt;span style=&quot;white-space: pre;&quot;&gt;&#9;&lt;/span&gt;&lt;span style=&quot;white-space: pre;&quot;&gt;&#9;&lt;/span&gt;&amp;gt;&amp;nbsp;GoToPostPageButton (button para poder ver en detalle los comentarios de un post; redirige a /posts/:id)&lt;/font&gt;&lt;/p&gt;&lt;p style=&quot;text-align: left;&quot;&gt;&lt;font color=&quot;#000000&quot;&gt;&amp;gt; Navbar (nav):&lt;/font&gt;&lt;/p&gt;&lt;p style=&quot;text-align: left;&quot;&gt;&lt;font color=&quot;#000000&quot;&gt;&lt;span style=&quot;white-space: pre;&quot;&gt;&#9;&lt;/span&gt;&amp;gt;&amp;nbsp;GoToMyFeedPageButton (button que redirige a /myfeed)&lt;/font&gt;&lt;/p&gt;&lt;p style=&quot;text-align: left;&quot;&gt;&lt;font color=&quot;#000000&quot;&gt;&lt;span style=&quot;white-space: pre;&quot;&gt;&#9;&lt;/span&gt;&amp;gt;&amp;nbsp;GoToCreatePostPageButton (button que redirige a /createpost)&lt;/font&gt;&lt;/p&gt;&lt;p style=&quot;text-align: left;&quot;&gt;&lt;font color=&quot;#000000&quot;&gt;&lt;span style=&quot;white-space: pre;&quot;&gt;&#9;&lt;/span&gt;&amp;gt;&amp;nbsp;GoToMyProfilePageButton (img que redirige a /myprofile)&lt;/font&gt;&lt;/p&gt;" style="text;html=1;strokeColor=none;fillColor=none;spacing=5;spacingTop=-20;whiteSpace=wrap;overflow=hidden;rounded=0;align=center;" parent="1" vertex="1">
                    <mxGeometry x="1483.75" y="-645" width="710" height="495" as="geometry"/>
                </mxCell>
                <mxCell id="109" value="&lt;font color=&quot;#ffffff&quot;&gt;imagen&lt;/font&gt;" style="whiteSpace=wrap;html=1;aspect=fixed;fontSize=40;fontColor=#ffffff;fillColor=#d80073;strokeColor=#A50040;" parent="1" vertex="1">
                    <mxGeometry x="1255" y="-505" width="205" height="205" as="geometry"/>
                </mxCell>
                <mxCell id="110" value="" style="rounded=1;whiteSpace=wrap;html=1;fontSize=40;fontColor=#FFFFFF;" parent="1" vertex="1">
                    <mxGeometry x="1255" y="-540" width="205" height="35" as="geometry"/>
                </mxCell>
                <mxCell id="111" value="" style="ellipse;whiteSpace=wrap;html=1;aspect=fixed;fontSize=40;fontColor=#ffffff;fillColor=#d80073;strokeColor=#A50040;" parent="1" vertex="1">
                    <mxGeometry x="1260" y="-537.5" width="30" height="30" as="geometry"/>
                </mxCell>
                <mxCell id="112" value="&lt;span style=&quot;font-size: 12px;&quot;&gt;Admin&lt;/span&gt;" style="text;html=1;strokeColor=none;fillColor=none;align=left;verticalAlign=middle;whiteSpace=wrap;rounded=0;fontSize=40;fontColor=#FFFFFF;" parent="1" vertex="1">
                    <mxGeometry x="1305" y="-540" width="140" height="20" as="geometry"/>
                </mxCell>
                <mxCell id="113" value="" style="rounded=0;whiteSpace=wrap;html=1;fontSize=12;fontColor=#FFFFFF;" parent="1" vertex="1">
                    <mxGeometry x="1235" y="-150" width="240" height="45" as="geometry"/>
                </mxCell>
                <mxCell id="114" value="&lt;font style=&quot;font-size: 7px;&quot;&gt;INICIO (FEED)&lt;/font&gt;" style="rounded=1;whiteSpace=wrap;html=1;fontSize=12;fontColor=#ffffff;fillColor=#1ba1e2;strokeColor=#006EAF;" parent="1" vertex="1">
                    <mxGeometry x="1245" y="-140" width="60" height="25" as="geometry"/>
                </mxCell>
                <mxCell id="117" value="&lt;font style=&quot;font-size: 9px;&quot;&gt;PERFIL&lt;/font&gt;" style="ellipse;whiteSpace=wrap;html=1;fontSize=12;fontColor=#ffffff;fillColor=#d80073;strokeColor=#A50040;" parent="1" vertex="1">
                    <mxGeometry x="1397.5" y="-147.5" width="60" height="40" as="geometry"/>
                </mxCell>
                <mxCell id="118" value="Nombre de la red social" style="rounded=0;whiteSpace=wrap;html=1;fontSize=12;fontColor=#FFFFFF;" parent="1" vertex="1">
                    <mxGeometry x="1235" y="-585" width="240" height="35" as="geometry"/>
                </mxCell>
                <mxCell id="119" value="&lt;font style=&quot;font-size: 8px;&quot;&gt;SUBIR&lt;br&gt;FOTO&lt;/font&gt;" style="ellipse;whiteSpace=wrap;html=1;aspect=fixed;fontSize=12;fontColor=#ffffff;fillColor=#1ba1e2;strokeColor=#006EAF;" parent="1" vertex="1">
                    <mxGeometry x="1336.25" y="-147.5" width="37.5" height="37.5" as="geometry"/>
                </mxCell>
                <mxCell id="121" value="" style="rounded=0;whiteSpace=wrap;html=1;fontSize=8;fontColor=#FFFFFF;" parent="1" vertex="1">
                    <mxGeometry x="1255" y="-297.5" width="202.5" height="52.5" as="geometry"/>
                </mxCell>
                <mxCell id="122" value="Número de likes&lt;br&gt;Descripción de la foto&lt;br&gt;Número de comentarios" style="text;html=1;strokeColor=none;fillColor=none;align=left;verticalAlign=middle;whiteSpace=wrap;rounded=0;fontSize=8;fontColor=#FFFFFF;" parent="1" vertex="1">
                    <mxGeometry x="1257.5" y="-297.5" width="200" height="32.5" as="geometry"/>
                </mxCell>
                <mxCell id="127" value="ME GUSTA" style="ellipse;whiteSpace=wrap;html=1;fontSize=9;fontColor=#ffffff;fillColor=#1ba1e2;strokeColor=#006EAF;" parent="1" vertex="1">
                    <mxGeometry x="1383.75" y="-291.25" width="60" height="20" as="geometry"/>
                </mxCell>
                <mxCell id="130" value="" style="rounded=0;whiteSpace=wrap;html=1;" parent="1" vertex="1">
                    <mxGeometry x="2830" y="-645" width="240" height="480" as="geometry"/>
                </mxCell>
                <mxCell id="132" value="&lt;font style=&quot;font-size: 15px;&quot;&gt;Nombre de usuario&lt;/font&gt;" style="rounded=0;whiteSpace=wrap;html=1;fontSize=9;fontColor=#FFFFFF;" parent="1" vertex="1">
                    <mxGeometry x="2830" y="-645" width="235" height="60" as="geometry"/>
                </mxCell>
                <mxCell id="133" value="FOTO&lt;br&gt;DE PERFIL" style="ellipse;whiteSpace=wrap;html=1;aspect=fixed;fontSize=15;fontColor=#ffffff;fillColor=#d80073;strokeColor=#A50040;" parent="1" vertex="1">
                    <mxGeometry x="2845" y="-575" width="80" height="80" as="geometry"/>
                </mxCell>
                <mxCell id="134" value="Cantidad&lt;br&gt;de posts" style="text;html=1;strokeColor=none;fillColor=none;align=center;verticalAlign=middle;whiteSpace=wrap;rounded=0;fontSize=15;fontColor=#FFFFFF;" parent="1" vertex="1">
                    <mxGeometry x="2965" y="-550" width="60" height="30" as="geometry"/>
                </mxCell>
                <mxCell id="135" value="" style="rounded=0;whiteSpace=wrap;html=1;fontSize=12;fontColor=#FFFFFF;" parent="1" vertex="1">
                    <mxGeometry x="2830" y="-210" width="240" height="45" as="geometry"/>
                </mxCell>
                <mxCell id="136" value="&lt;font style=&quot;font-size: 7px;&quot;&gt;INICIO (FEED)&lt;/font&gt;" style="rounded=1;whiteSpace=wrap;html=1;fontSize=12;fontColor=#ffffff;fillColor=#1ba1e2;strokeColor=#006EAF;" parent="1" vertex="1">
                    <mxGeometry x="2840" y="-200" width="60" height="25" as="geometry"/>
                </mxCell>
                <mxCell id="137" value="&lt;font style=&quot;font-size: 9px;&quot;&gt;PERFIL&lt;/font&gt;" style="ellipse;whiteSpace=wrap;html=1;fontSize=12;fontColor=#ffffff;fillColor=#d80073;strokeColor=#A50040;" parent="1" vertex="1">
                    <mxGeometry x="2992.5" y="-207.5" width="60" height="40" as="geometry"/>
                </mxCell>
                <mxCell id="138" value="&lt;font style=&quot;font-size: 8px;&quot;&gt;SUBIR&lt;br&gt;FOTO&lt;/font&gt;" style="ellipse;whiteSpace=wrap;html=1;aspect=fixed;fontSize=12;fontColor=#ffffff;fillColor=#1ba1e2;strokeColor=#006EAF;" parent="1" vertex="1">
                    <mxGeometry x="2931.25" y="-210" width="37.5" height="37.5" as="geometry"/>
                </mxCell>
                <mxCell id="139" value="&lt;font style=&quot;font-size: 9px;&quot;&gt;EDITAR PERFIL&lt;/font&gt;" style="rounded=1;whiteSpace=wrap;html=1;fontSize=15;fontColor=#ffffff;fillColor=#1ba1e2;strokeColor=#006EAF;" parent="1" vertex="1">
                    <mxGeometry x="2955" y="-485" width="100" height="40" as="geometry"/>
                </mxCell>
                <mxCell id="140" value="" style="verticalLabelPosition=bottom;shadow=0;dashed=0;align=center;html=1;verticalAlign=top;strokeWidth=1;shape=mxgraph.mockup.graphics.simpleIcon;strokeColor=#A50040;fillColor=#d80073;fontSize=15;fontColor=#ffffff;" parent="1" vertex="1">
                    <mxGeometry x="2850" y="-435" width="50" height="50" as="geometry"/>
                </mxCell>
                <mxCell id="141" value="" style="verticalLabelPosition=bottom;shadow=0;dashed=0;align=center;html=1;verticalAlign=top;strokeWidth=1;shape=mxgraph.mockup.graphics.simpleIcon;strokeColor=#A50040;fillColor=#d80073;fontSize=15;fontColor=#ffffff;" parent="1" vertex="1">
                    <mxGeometry x="2925" y="-435" width="50" height="50" as="geometry"/>
                </mxCell>
                <mxCell id="142" value="" style="verticalLabelPosition=bottom;shadow=0;dashed=0;align=center;html=1;verticalAlign=top;strokeWidth=1;shape=mxgraph.mockup.graphics.simpleIcon;strokeColor=#A50040;fillColor=#d80073;fontSize=15;fontColor=#ffffff;" parent="1" vertex="1">
                    <mxGeometry x="3000" y="-435" width="50" height="50" as="geometry"/>
                </mxCell>
                <mxCell id="143" value="" style="verticalLabelPosition=bottom;shadow=0;dashed=0;align=center;html=1;verticalAlign=top;strokeWidth=1;shape=mxgraph.mockup.graphics.simpleIcon;strokeColor=#A50040;fillColor=#d80073;fontSize=15;fontColor=#ffffff;" parent="1" vertex="1">
                    <mxGeometry x="2850" y="-360" width="50" height="50" as="geometry"/>
                </mxCell>
                <mxCell id="144" value="" style="verticalLabelPosition=bottom;shadow=0;dashed=0;align=center;html=1;verticalAlign=top;strokeWidth=1;shape=mxgraph.mockup.graphics.simpleIcon;strokeColor=#A50040;fillColor=#d80073;fontSize=15;fontColor=#ffffff;" parent="1" vertex="1">
                    <mxGeometry x="2925" y="-360" width="50" height="50" as="geometry"/>
                </mxCell>
                <mxCell id="145" value="" style="verticalLabelPosition=bottom;shadow=0;dashed=0;align=center;html=1;verticalAlign=top;strokeWidth=1;shape=mxgraph.mockup.graphics.simpleIcon;strokeColor=#A50040;fillColor=#d80073;fontSize=15;fontColor=#ffffff;" parent="1" vertex="1">
                    <mxGeometry x="3000" y="-360" width="50" height="50" as="geometry"/>
                </mxCell>
                <mxCell id="146" value="" style="verticalLabelPosition=bottom;shadow=0;dashed=0;align=center;html=1;verticalAlign=top;strokeWidth=1;shape=mxgraph.mockup.graphics.simpleIcon;strokeColor=#A50040;fillColor=#d80073;fontSize=15;fontColor=#ffffff;" parent="1" vertex="1">
                    <mxGeometry x="2850" y="-285" width="50" height="50" as="geometry"/>
                </mxCell>
                <mxCell id="147" value="" style="verticalLabelPosition=bottom;shadow=0;dashed=0;align=center;html=1;verticalAlign=top;strokeWidth=1;shape=mxgraph.mockup.graphics.simpleIcon;strokeColor=#A50040;fillColor=#d80073;fontSize=15;fontColor=#ffffff;" parent="1" vertex="1">
                    <mxGeometry x="2925" y="-285" width="50" height="50" as="geometry"/>
                </mxCell>
                <mxCell id="148" value="" style="verticalLabelPosition=bottom;shadow=0;dashed=0;align=center;html=1;verticalAlign=top;strokeWidth=1;shape=mxgraph.mockup.graphics.simpleIcon;strokeColor=#A50040;fillColor=#d80073;fontSize=15;fontColor=#ffffff;" parent="1" vertex="1">
                    <mxGeometry x="3000" y="-285" width="50" height="50" as="geometry"/>
                </mxCell>
                <mxCell id="218" value="/myprofile" style="text;html=1;strokeColor=none;fillColor=none;align=center;verticalAlign=middle;whiteSpace=wrap;rounded=0;" parent="1" vertex="1">
                    <mxGeometry x="2830" y="-675" width="95" height="30" as="geometry"/>
                </mxCell>
                <mxCell id="220" value="INPUT" style="rounded=1;whiteSpace=wrap;html=1;fillColor=#a20025;fontColor=#ffffff;strokeColor=#6F0000;" parent="1" vertex="1">
                    <mxGeometry x="570" y="-1355" width="120" height="40" as="geometry"/>
                </mxCell>
                <mxCell id="221" value="BUTTON" style="rounded=1;whiteSpace=wrap;html=1;fillColor=#1ba1e2;fontColor=#ffffff;strokeColor=#006EAF;" parent="1" vertex="1">
                    <mxGeometry x="570" y="-1275" width="120" height="40" as="geometry"/>
                </mxCell>
                <mxCell id="223" value="IMG" style="rounded=1;whiteSpace=wrap;html=1;fillColor=#d80073;fontColor=#ffffff;strokeColor=#A50040;" parent="1" vertex="1">
                    <mxGeometry x="570" y="-1195" width="120" height="40" as="geometry"/>
                </mxCell>
                <mxCell id="225" value="&lt;font style=&quot;font-size: 22px;&quot;&gt;REFERENCIAS&lt;/font&gt;" style="text;html=1;strokeColor=none;fillColor=none;align=center;verticalAlign=middle;rounded=0;fontColor=#141414;" parent="1" vertex="1">
                    <mxGeometry x="610" y="-1465" width="60" height="30" as="geometry"/>
                </mxCell>
                <mxCell id="231" value="/register" style="text;html=1;strokeColor=none;fillColor=none;align=center;verticalAlign=middle;whiteSpace=wrap;rounded=0;" parent="1" vertex="1">
                    <mxGeometry x="2910" y="-1505" width="60" height="30" as="geometry"/>
                </mxCell>
                <mxCell id="232" value="/register" style="text;html=1;strokeColor=none;fillColor=none;align=center;verticalAlign=middle;whiteSpace=wrap;rounded=0;" parent="1" vertex="1">
                    <mxGeometry x="3190" y="-1505" width="60" height="30" as="geometry"/>
                </mxCell>
                <mxCell id="233" value="/register" style="text;html=1;strokeColor=none;fillColor=none;align=center;verticalAlign=middle;whiteSpace=wrap;rounded=0;" parent="1" vertex="1">
                    <mxGeometry x="3470" y="-1505" width="60" height="30" as="geometry"/>
                </mxCell>
                <mxCell id="234" value="/register" style="text;html=1;strokeColor=none;fillColor=none;align=center;verticalAlign=middle;whiteSpace=wrap;rounded=0;" parent="1" vertex="1">
                    <mxGeometry x="3750" y="-1505" width="60" height="30" as="geometry"/>
                </mxCell>
                <mxCell id="235" value="&lt;font color=&quot;#000000&quot;&gt;TERMINADO&lt;/font&gt;" style="text;html=1;strokeColor=none;fillColor=none;align=center;verticalAlign=middle;whiteSpace=wrap;rounded=0;fontSize=20;fontColor=#FF9933;" parent="1" vertex="1">
                    <mxGeometry x="1780" y="-1580" width="60" height="30" as="geometry"/>
                </mxCell>
                <mxCell id="243" value="&lt;h1 style=&quot;text-align: left;&quot;&gt;&lt;font color=&quot;#000000&quot;&gt;Componentes y comportamiento de MyProfilePage&lt;/font&gt;&lt;/h1&gt;&lt;p style=&quot;text-align: left;&quot;&gt;&lt;font color=&quot;#000000&quot;&gt;&amp;gt; h1 (nombre de usuario)&lt;/font&gt;&lt;/p&gt;&lt;p style=&quot;text-align: left;&quot;&gt;&lt;font color=&quot;#000000&quot;&gt;&amp;gt; p (cantidad de posts del usuario)&lt;/font&gt;&lt;/p&gt;&lt;p style=&quot;text-align: left;&quot;&gt;&lt;font color=&quot;#000000&quot;&gt;&amp;gt; LogoutButton (button que cierra la sesión y redirige a /login)&lt;/font&gt;&lt;/p&gt;&lt;p style=&quot;text-align: left;&quot;&gt;&lt;font color=&quot;#000000&quot;&gt;&amp;gt; GoToEditMyProfilePageButton (redirige a /myprofile/edit)&lt;/font&gt;&lt;/p&gt;&lt;p style=&quot;text-align: left;&quot;&gt;&lt;font color=&quot;#000000&quot;&gt;&amp;gt; MyPostsContainer (article)&lt;/font&gt;&lt;/p&gt;&lt;span style=&quot;color: rgb(0, 0, 0);&quot;&gt;&lt;div style=&quot;text-align: left;&quot;&gt;&lt;span style=&quot;background-color: initial; white-space: pre;&quot;&gt;&#9;&lt;/span&gt;&lt;span style=&quot;background-color: initial;&quot;&gt;- se muestran todas las imágenes subidas por el usuario en la red social ordenadas cronólogicamente&lt;/span&gt;&lt;/div&gt;&lt;/span&gt;&lt;span style=&quot;color: rgb(0, 0, 0); background-color: initial;&quot;&gt;&lt;div style=&quot;text-align: left;&quot;&gt;&lt;span style=&quot;background-color: initial;&quot;&gt;&lt;span style=&quot;white-space: pre;&quot;&gt;&#9;&lt;/span&gt;- con varias img que redirigen a /myposts/:id&lt;/span&gt;&lt;/div&gt;&lt;/span&gt;&lt;p style=&quot;text-align: left;&quot;&gt;&lt;font color=&quot;#000000&quot;&gt;&amp;gt; Navbar (nav):&lt;/font&gt;&lt;/p&gt;&lt;p style=&quot;text-align: left;&quot;&gt;&lt;font color=&quot;#000000&quot;&gt;&lt;span style=&quot;&quot;&gt;&#9;&lt;/span&gt;&lt;span style=&quot;white-space: pre;&quot;&gt;&#9;&lt;/span&gt;Ya vista en /myfeed&lt;/font&gt;&lt;/p&gt;&lt;p style=&quot;text-align: left;&quot;&gt;&lt;font color=&quot;#000000&quot;&gt;&lt;span style=&quot;&quot;&gt;&#9;&lt;/span&gt;&lt;span style=&quot;&quot;&gt;&#9;&lt;/span&gt;&lt;br&gt;&lt;/font&gt;&lt;/p&gt;&lt;p style=&quot;text-align: left;&quot;&gt;&lt;font color=&quot;#000000&quot;&gt;&lt;br&gt;&lt;/font&gt;&lt;/p&gt;" style="text;html=1;strokeColor=none;fillColor=none;spacing=5;spacingTop=-20;whiteSpace=wrap;overflow=hidden;rounded=0;align=center;" parent="1" vertex="1">
                    <mxGeometry x="3113.75" y="-685" width="640" height="640" as="geometry"/>
                </mxCell>
                <mxCell id="244" value="CERRAR&lt;br&gt;SESIÓN" style="rounded=1;whiteSpace=wrap;html=1;fontSize=9;fontColor=#ffffff;fillColor=#1ba1e2;strokeColor=#006EAF;" parent="1" vertex="1">
                    <mxGeometry x="2840" y="-485" width="105" height="40" as="geometry"/>
                </mxCell>
                <mxCell id="246" value="&lt;h1 style=&quot;text-align: left;&quot;&gt;&lt;font color=&quot;#000000&quot;&gt;Componentes y comportamiento de ProfilePage&lt;/font&gt;&lt;/h1&gt;&lt;p style=&quot;text-align: left;&quot;&gt;&lt;font color=&quot;#000000&quot;&gt;&amp;gt; h1 (nombre de usuario)&lt;/font&gt;&lt;/p&gt;&lt;p style=&quot;text-align: left;&quot;&gt;&lt;font color=&quot;#000000&quot;&gt;&amp;gt; p (cantidad de posts del usuario)&lt;/font&gt;&lt;/p&gt;&lt;p style=&quot;text-align: left;&quot;&gt;&lt;font color=&quot;#000000&quot;&gt;&amp;gt; PostsContainer (article)&lt;/font&gt;&lt;/p&gt;&lt;span style=&quot;color: rgb(0, 0, 0);&quot;&gt;&lt;div style=&quot;text-align: left;&quot;&gt;&lt;span style=&quot;background-color: initial; white-space: pre;&quot;&gt;&#9;&lt;/span&gt;&lt;span style=&quot;background-color: initial;&quot;&gt;- se muestran todas las imágenes subidas por el usuario en la red social ordenadas cronólogicamente&lt;/span&gt;&lt;/div&gt;&lt;/span&gt;&lt;span style=&quot;color: rgb(0, 0, 0); background-color: initial;&quot;&gt;&lt;div style=&quot;text-align: left;&quot;&gt;&lt;span style=&quot;background-color: initial;&quot;&gt;&lt;span style=&quot;white-space: pre;&quot;&gt;&#9;&lt;/span&gt;- con varias img que redirigen a /posts/:id&lt;/span&gt;&lt;/div&gt;&lt;/span&gt;&lt;p style=&quot;text-align: left;&quot;&gt;&lt;font color=&quot;#000000&quot;&gt;&amp;gt; Navbar (nav):&lt;/font&gt;&lt;/p&gt;&lt;p style=&quot;text-align: left;&quot;&gt;&lt;font color=&quot;#000000&quot;&gt;&lt;span style=&quot;&quot;&gt;&#9;&lt;/span&gt;&lt;span style=&quot;white-space: pre;&quot;&gt;&#9;&lt;/span&gt;- Ya vista en /myfeed&lt;/font&gt;&lt;/p&gt;&lt;p style=&quot;text-align: left;&quot;&gt;&lt;font color=&quot;#000000&quot;&gt;&lt;span style=&quot;&quot;&gt;&#9;&lt;/span&gt;&lt;span style=&quot;&quot;&gt;&#9;&lt;/span&gt;&lt;br&gt;&lt;/font&gt;&lt;/p&gt;&lt;p style=&quot;text-align: left;&quot;&gt;&lt;font color=&quot;#000000&quot;&gt;&lt;br&gt;&lt;/font&gt;&lt;/p&gt;" style="text;html=1;strokeColor=none;fillColor=none;spacing=5;spacingTop=-20;whiteSpace=wrap;overflow=hidden;rounded=0;align=center;" parent="1" vertex="1">
                    <mxGeometry x="1560" y="172.5" width="640" height="385" as="geometry"/>
                </mxCell>
                <mxCell id="250" value="&lt;div style=&quot;text-align: left; font-size: 20px;&quot;&gt;&lt;span style=&quot;background-color: initial;&quot;&gt;&lt;font style=&quot;font-size: 20px;&quot;&gt;&lt;b&gt;&lt;u&gt;RUTAS DISPONIBLES Y FLUJO:&lt;/u&gt;&lt;/b&gt;&lt;/font&gt;&lt;/span&gt;&lt;/div&gt;&lt;div style=&quot;text-align: left; font-size: 20px;&quot;&gt;&lt;span style=&quot;background-color: initial;&quot;&gt;&lt;font style=&quot;font-size: 20px;&quot;&gt;&lt;b&gt;&lt;u&gt;&lt;br&gt;&lt;/u&gt;&lt;/b&gt;&lt;/font&gt;&lt;/span&gt;&lt;/div&gt;&lt;div style=&quot;text-align: left; font-size: 20px;&quot;&gt;&lt;span style=&quot;background-color: initial;&quot;&gt;&lt;font style=&quot;font-size: 20px;&quot;&gt;&lt;b&gt;&lt;u&gt;Navbar:&lt;/u&gt;&lt;/b&gt;&lt;/font&gt;&lt;/span&gt;&lt;/div&gt;&lt;div style=&quot;font-size: 20px; text-align: left;&quot;&gt;&lt;div&gt;&lt;span style=&quot;&quot;&gt;&#9;&lt;/span&gt;&lt;span style=&quot;&quot;&gt;&#9;&lt;/span&gt;Apretar el botón de my feed en el navbar lleva a /myfeed.&lt;span style=&quot;background-color: initial;&quot;&gt;&lt;br&gt;&lt;/span&gt;&lt;/div&gt;&lt;div&gt;&lt;span style=&quot;background-color: initial;&quot;&gt;&lt;span style=&quot;&quot;&gt;&#9;&lt;/span&gt;&lt;span style=&quot;&quot;&gt;&#9;&lt;/span&gt;Apretar el botón de crear post en el navbar lleva a /createpost.&lt;/span&gt;&lt;/div&gt;&lt;div&gt;&lt;span style=&quot;background-color: initial;&quot;&gt;&lt;span style=&quot;&quot;&gt;&#9;&lt;/span&gt;&lt;span style=&quot;&quot;&gt;&#9;&lt;/span&gt;Apretar la foto de perfil propia en el navbar lleva a /myprofile.&lt;/span&gt;&lt;/div&gt;&lt;/div&gt;&lt;div style=&quot;text-align: left; font-size: 20px;&quot;&gt;&lt;br&gt;&lt;/div&gt;&lt;div style=&quot;text-align: left; font-size: 20px;&quot;&gt;&lt;span style=&quot;background-color: initial;&quot;&gt;&lt;font style=&quot;font-size: 20px;&quot;&gt;&lt;b&gt;/login&lt;/b&gt;&lt;/font&gt;&lt;/span&gt;&lt;/div&gt;&lt;div style=&quot;text-align: left; font-size: 20px;&quot;&gt;&lt;span style=&quot;background-color: initial;&quot;&gt;&lt;font style=&quot;font-size: 20px;&quot;&gt;Donde el usuario se loguea y es llevado a /myfeed.&lt;/font&gt;&lt;/span&gt;&lt;/div&gt;&lt;div style=&quot;text-align: left; font-size: 20px;&quot;&gt;&lt;span style=&quot;background-color: initial;&quot;&gt;&lt;font style=&quot;font-size: 20px;&quot;&gt;Dar en el botón de crear cuenta lleva a /register.&lt;/font&gt;&lt;/span&gt;&lt;/div&gt;&lt;div style=&quot;text-align: left; font-size: 20px;&quot;&gt;&lt;span style=&quot;background-color: initial;&quot;&gt;&lt;font style=&quot;font-size: 20px;&quot;&gt;&lt;br&gt;&lt;/font&gt;&lt;/span&gt;&lt;/div&gt;&lt;div style=&quot;text-align: left; font-size: 20px;&quot;&gt;&lt;span style=&quot;background-color: initial;&quot;&gt;&lt;font style=&quot;font-size: 20px;&quot;&gt;&lt;b&gt;/register&lt;/b&gt;&lt;/font&gt;&lt;/span&gt;&lt;/div&gt;&lt;div style=&quot;text-align: left; font-size: 20px;&quot;&gt;&lt;span style=&quot;background-color: initial;&quot;&gt;&lt;font style=&quot;font-size: 20px;&quot;&gt;Donde el usuario se registra y es llevado /login.&lt;/font&gt;&lt;/span&gt;&lt;/div&gt;&lt;div style=&quot;text-align: left; font-size: 20px;&quot;&gt;&lt;span style=&quot;background-color: initial;&quot;&gt;Tanto cancelar el registro como completarlo lleva a /login.&lt;/span&gt;&lt;/div&gt;&lt;div style=&quot;text-align: left; font-size: 20px;&quot;&gt;&lt;span style=&quot;background-color: initial;&quot;&gt;&lt;font style=&quot;font-size: 20px;&quot;&gt;&lt;br&gt;&lt;/font&gt;&lt;/span&gt;&lt;/div&gt;&lt;div style=&quot;text-align: left; font-size: 20px;&quot;&gt;&lt;span style=&quot;background-color: initial;&quot;&gt;&lt;b&gt;/myfeed&lt;/b&gt;&lt;/span&gt;&lt;/div&gt;&lt;div style=&quot;text-align: left; font-size: 20px;&quot;&gt;&lt;span style=&quot;background-color: initial;&quot;&gt;Donde el usuario ve los posts de otros usuarios menos los propios ordenados de forma cronológica.&lt;/span&gt;&lt;/div&gt;&lt;div style=&quot;text-align: left; font-size: 20px;&quot;&gt;&lt;div&gt;&lt;span style=&quot;background-color: initial;&quot;&gt;Apretar el botón de ver comentarios lleva a /posts/:id.&lt;br&gt;&lt;/span&gt;&lt;/div&gt;&lt;div&gt;&lt;span style=&quot;background-color: initial;&quot;&gt;Apretar la foto de perfil de un usuario en un post lleva a /profiles/:id.&lt;/span&gt;&lt;/div&gt;&lt;div&gt;&lt;span style=&quot;background-color: initial;&quot;&gt;&lt;u&gt;Navbar.&lt;/u&gt;&lt;/span&gt;&lt;/div&gt;&lt;/div&gt;&lt;div style=&quot;text-align: left; font-size: 20px;&quot;&gt;&lt;span style=&quot;background-color: initial;&quot;&gt;&lt;font style=&quot;font-size: 20px;&quot;&gt;&lt;br&gt;&lt;/font&gt;&lt;/span&gt;&lt;/div&gt;&lt;div style=&quot;text-align: left; font-size: 20px;&quot;&gt;&lt;span style=&quot;background-color: initial;&quot;&gt;&lt;font style=&quot;font-size: 20px;&quot;&gt;&lt;b&gt;/createpost&lt;/b&gt;&lt;/font&gt;&lt;/span&gt;&lt;/div&gt;&lt;div style=&quot;text-align: left; font-size: 20px;&quot;&gt;&lt;span style=&quot;background-color: initial;&quot;&gt;&lt;font style=&quot;font-size: 20px;&quot;&gt;Donde el usuario crea un nuevo post que aparecerá en el feed de otros usuarios y en su perfil.&lt;/font&gt;&lt;/span&gt;&lt;/div&gt;&lt;div style=&quot;text-align: left; font-size: 20px;&quot;&gt;&lt;span style=&quot;background-color: initial;&quot;&gt;&lt;font style=&quot;font-size: 20px;&quot;&gt;Para crear un nuevo post le pide su contraseña.&lt;/font&gt;&lt;/span&gt;&lt;/div&gt;&lt;div style=&quot;text-align: left; font-size: 20px;&quot;&gt;&lt;span style=&quot;background-color: initial;&quot;&gt;&lt;font style=&quot;font-size: 20px;&quot;&gt;Tanto completar la creación como cancelarla lleva a /myprofile.&lt;/font&gt;&lt;/span&gt;&lt;/div&gt;&lt;div style=&quot;text-align: left; font-size: 20px;&quot;&gt;&lt;span style=&quot;background-color: initial;&quot;&gt;&lt;font style=&quot;font-size: 20px;&quot;&gt;&lt;br&gt;&lt;/font&gt;&lt;/span&gt;&lt;/div&gt;&lt;div style=&quot;text-align: left; font-size: 20px;&quot;&gt;&lt;span style=&quot;background-color: initial;&quot;&gt;&lt;font style=&quot;font-size: 20px;&quot;&gt;&lt;b&gt;/myprofile&lt;/b&gt;&lt;/font&gt;&lt;/span&gt;&lt;/div&gt;&lt;div style=&quot;text-align: left; font-size: 20px;&quot;&gt;&lt;span style=&quot;background-color: initial;&quot;&gt;&lt;font style=&quot;font-size: 20px;&quot;&gt;Donde el usuario ve su perfil e imágenes subidas en forma cronológica.&lt;/font&gt;&lt;/span&gt;&lt;/div&gt;&lt;div style=&quot;text-align: left; font-size: 20px;&quot;&gt;&lt;span style=&quot;background-color: initial;&quot;&gt;&lt;font style=&quot;font-size: 20px;&quot;&gt;Apretar el botón de editar perfil lleva a /myprofile/edit.&lt;br&gt;&lt;/font&gt;&lt;/span&gt;&lt;/div&gt;&lt;div style=&quot;text-align: left; font-size: 20px;&quot;&gt;&lt;span style=&quot;background-color: initial;&quot;&gt;&lt;font style=&quot;font-size: 20px;&quot;&gt;Apretar el botón de cerrar sesión lleva a /login.&lt;br&gt;&lt;/font&gt;&lt;/span&gt;&lt;/div&gt;&lt;div style=&quot;text-align: left; font-size: 20px;&quot;&gt;&lt;span style=&quot;background-color: initial;&quot;&gt;&lt;font style=&quot;font-size: 20px;&quot;&gt;Apretar una de las imágenes subidas lleva a /myposts/:id.&lt;/font&gt;&lt;/span&gt;&lt;/div&gt;&lt;div style=&quot;text-align: left; font-size: 20px;&quot;&gt;&lt;span style=&quot;background-color: initial;&quot;&gt;&lt;font style=&quot;font-size: 20px;&quot;&gt;&lt;u&gt;Navbar.&lt;/u&gt;&lt;/font&gt;&lt;/span&gt;&lt;/div&gt;&lt;div style=&quot;text-align: left; font-size: 20px;&quot;&gt;&lt;div&gt;&lt;span style=&quot;background-color: initial;&quot;&gt;&lt;br&gt;&lt;/span&gt;&lt;/div&gt;&lt;/div&gt;&lt;div style=&quot;text-align: left; font-size: 20px;&quot;&gt;&lt;span style=&quot;background-color: initial;&quot;&gt;&lt;span style=&quot;&quot;&gt;&#9;&lt;/span&gt;&lt;span style=&quot;&quot;&gt;&#9;&lt;/span&gt;  &#9;&lt;/span&gt;&lt;span style=&quot;background-color: initial;&quot;&gt;&#9;&lt;/span&gt;&lt;/div&gt;&lt;div style=&quot;text-align: left; font-size: 20px;&quot;&gt;&lt;span style=&quot;background-color: initial;&quot;&gt;&lt;font style=&quot;font-size: 20px;&quot;&gt;&lt;b&gt;/myprofile/edit&lt;/b&gt;&lt;/font&gt;&lt;/span&gt;&lt;/div&gt;&lt;div style=&quot;text-align: left; font-size: 20px;&quot;&gt;&lt;span style=&quot;background-color: initial;&quot;&gt;&lt;font style=&quot;font-size: 20px;&quot;&gt;Donde el usuario edita su nombre de usuario y contraseña.&lt;/font&gt;&lt;/span&gt;&lt;/div&gt;&lt;div style=&quot;text-align: left; font-size: 20px;&quot;&gt;&lt;span style=&quot;background-color: initial;&quot;&gt;&lt;font style=&quot;font-size: 20px;&quot;&gt;Para editar el perfil le pide su contraseña.&lt;/font&gt;&lt;/span&gt;&lt;/div&gt;&lt;div style=&quot;text-align: left; font-size: 20px;&quot;&gt;Tanto cancelar la edición como completarla lleva a /myprofile.&lt;/div&gt;&lt;div style=&quot;text-align: left; font-size: 20px;&quot;&gt;&lt;span style=&quot;background-color: initial;&quot;&gt;&lt;font style=&quot;font-size: 20px;&quot;&gt;&lt;br&gt;&lt;/font&gt;&lt;/span&gt;&lt;/div&gt;&lt;div style=&quot;text-align: left; font-size: 20px;&quot;&gt;&lt;span style=&quot;background-color: initial;&quot;&gt;&lt;font style=&quot;font-size: 20px;&quot;&gt;&lt;b&gt;/myposts/:id&lt;/b&gt;&lt;/font&gt;&lt;/span&gt;&lt;/div&gt;&lt;div style=&quot;text-align: left; font-size: 20px;&quot;&gt;Donde el usuario ve uno de sus posts y los comentarios asociados según la id del post.&lt;/div&gt;&lt;div style=&quot;text-align: left; font-size: 20px;&quot;&gt;Apretar el botón de eliminar post elimina el post y lleva a /myprofile.&lt;/div&gt;&lt;div style=&quot;text-align: left; font-size: 20px;&quot;&gt;Eliminar un post pide contraseña.&lt;/div&gt;&lt;div style=&quot;text-align: left; font-size: 20px;&quot;&gt;Apretar la foto de perfil de un usuario en un post propio lleva a /profiles/:id.&lt;/div&gt;&lt;div style=&quot;text-align: left; font-size: 20px;&quot;&gt;&lt;u&gt;Navbar.&lt;/u&gt;&lt;/div&gt;&lt;div style=&quot;text-align: left; font-size: 20px;&quot;&gt;&lt;br&gt;&lt;/div&gt;&lt;div style=&quot;text-align: left; font-size: 20px;&quot;&gt;&lt;span style=&quot;background-color: initial;&quot;&gt;&lt;font style=&quot;font-size: 20px;&quot;&gt;&lt;b&gt;/profiles/:id&lt;/b&gt;&lt;/font&gt;&lt;/span&gt;&lt;/div&gt;&lt;div style=&quot;text-align: left; font-size: 20px;&quot;&gt;&lt;span style=&quot;background-color: initial;&quot;&gt;&lt;font style=&quot;font-size: 20px;&quot;&gt;Donde el usuario ve el perfil de otro usuario y sus imágenes subidas en forma cronológica según la id del usuario.&lt;/font&gt;&lt;/span&gt;&lt;/div&gt;&lt;div style=&quot;text-align: left; font-size: 20px;&quot;&gt;&lt;div&gt;&lt;span style=&quot;background-color: initial;&quot;&gt;Apretar una de las imágenes subidas lleva a /posts/:id.&lt;/span&gt;&lt;/div&gt;&lt;div&gt;&lt;span style=&quot;background-color: initial;&quot;&gt;&lt;u&gt;Navbar.&lt;/u&gt;&lt;/span&gt;&lt;/div&gt;&lt;/div&gt;&lt;div style=&quot;text-align: left; font-size: 20px;&quot;&gt;&lt;span style=&quot;background-color: initial;&quot;&gt;&lt;font style=&quot;font-size: 20px;&quot;&gt;&lt;br&gt;&lt;/font&gt;&lt;/span&gt;&lt;/div&gt;&lt;div style=&quot;text-align: left; font-size: 20px;&quot;&gt;&lt;span style=&quot;background-color: initial;&quot;&gt;&lt;font style=&quot;font-size: 20px;&quot;&gt;&lt;b&gt;/posts/:id&lt;/b&gt;&lt;/font&gt;&lt;/span&gt;&lt;/div&gt;&lt;div style=&quot;text-align: left; font-size: 20px;&quot;&gt;&lt;span style=&quot;background-color: initial;&quot;&gt;&lt;font style=&quot;font-size: 20px;&quot;&gt;Donde el usuario ve un post de otro usuario y sus comentarios asociados.&lt;/font&gt;&lt;/span&gt;&lt;/div&gt;&lt;div style=&quot;text-align: left; font-size: 20px;&quot;&gt;Apretar la foto de perfil de un usuario en un post lleva a /profiles/:id.&lt;/div&gt;&lt;div style=&quot;text-align: left; font-size: 20px;&quot;&gt;&lt;u&gt;Navbar.&lt;/u&gt;&lt;/div&gt;" style="rounded=1;whiteSpace=wrap;html=1;fontSize=9;fontColor=#000000;fillColor=#7D7540;" parent="1" vertex="1">
                    <mxGeometry x="-1350" y="-2895" width="1070" height="1450" as="geometry"/>
                </mxCell>
                <mxCell id="361" style="edgeStyle=none;html=1;exitX=1;exitY=0.5;exitDx=0;exitDy=0;entryX=0.5;entryY=1;entryDx=0;entryDy=0;fontSize=10;" edge="1" parent="1" source="251" target="253">
                    <mxGeometry relative="1" as="geometry">
                        <Array as="points">
                            <mxPoint x="480" y="-2040"/>
                        </Array>
                    </mxGeometry>
                </mxCell>
                <mxCell id="251" value="&lt;font style=&quot;font-size: 20px;&quot;&gt;/login&lt;/font&gt;" style="rounded=0;whiteSpace=wrap;html=1;fillColor=#008a00;fontColor=#ffffff;strokeColor=#005700;" vertex="1" parent="1">
                    <mxGeometry x="-80" y="-2070" width="120" height="60" as="geometry"/>
                </mxCell>
                <mxCell id="252" value="/register" style="rounded=0;whiteSpace=wrap;html=1;fontSize=20;fillColor=#008a00;fontColor=#ffffff;strokeColor=#005700;" vertex="1" parent="1">
                    <mxGeometry x="-220" y="-1900" width="120" height="60" as="geometry"/>
                </mxCell>
                <mxCell id="253" value="/myfeed" style="rounded=0;whiteSpace=wrap;html=1;fontSize=20;fillColor=#a20025;fontColor=#ffffff;strokeColor=#6F0000;" vertex="1" parent="1">
                    <mxGeometry x="420" y="-2400" width="120" height="60" as="geometry"/>
                </mxCell>
                <mxCell id="254" value="/createpost" style="rounded=0;whiteSpace=wrap;html=1;fontSize=20;fillColor=#a20025;fontColor=#ffffff;strokeColor=#6F0000;" vertex="1" parent="1">
                    <mxGeometry x="800" y="-2530" width="120" height="60" as="geometry"/>
                </mxCell>
                <mxCell id="370" style="edgeStyle=none;html=1;exitX=0;exitY=0.5;exitDx=0;exitDy=0;entryX=0.5;entryY=1;entryDx=0;entryDy=0;fontSize=10;" edge="1" parent="1" source="255" target="251">
                    <mxGeometry relative="1" as="geometry">
                        <Array as="points">
                            <mxPoint x="680" y="-2200"/>
                            <mxPoint x="680" y="-1920"/>
                            <mxPoint x="-20" y="-1920"/>
                        </Array>
                    </mxGeometry>
                </mxCell>
                <mxCell id="255" value="/myprofile" style="rounded=0;whiteSpace=wrap;html=1;fontSize=20;fillColor=#a20025;fontColor=#ffffff;strokeColor=#6F0000;" vertex="1" parent="1">
                    <mxGeometry x="800" y="-2230" width="120" height="60" as="geometry"/>
                </mxCell>
                <mxCell id="256" value="/myprofile/edit" style="rounded=0;whiteSpace=wrap;html=1;fontSize=20;fillColor=#008a00;fontColor=#ffffff;strokeColor=#005700;" vertex="1" parent="1">
                    <mxGeometry x="770" y="-2040" width="180" height="60" as="geometry"/>
                </mxCell>
                <mxCell id="258" value="/myposts/:id" style="rounded=0;whiteSpace=wrap;html=1;fontSize=20;fillColor=#008a00;fontColor=#ffffff;strokeColor=#005700;" vertex="1" parent="1">
                    <mxGeometry x="815" y="-2680" width="180" height="60" as="geometry"/>
                </mxCell>
                <mxCell id="259" value="/profiles/:id" style="rounded=0;whiteSpace=wrap;html=1;fontSize=20;fillColor=#008a00;fontColor=#ffffff;strokeColor=#005700;" vertex="1" parent="1">
                    <mxGeometry x="390" y="-2930" width="180" height="60" as="geometry"/>
                </mxCell>
                <mxCell id="260" value="/posts/:id" style="rounded=0;whiteSpace=wrap;html=1;fontSize=20;fillColor=#008a00;fontColor=#ffffff;strokeColor=#005700;" vertex="1" parent="1">
                    <mxGeometry x="-20" y="-2680" width="180" height="60" as="geometry"/>
                </mxCell>
                <mxCell id="280" value="" style="endArrow=classic;startArrow=classic;html=1;fontSize=20;exitX=0;exitY=0.5;exitDx=0;exitDy=0;entryX=0.5;entryY=0;entryDx=0;entryDy=0;" edge="1" parent="1" source="251" target="252">
                    <mxGeometry width="50" height="50" relative="1" as="geometry">
                        <mxPoint x="-460" y="-1570" as="sourcePoint"/>
                        <mxPoint x="-410" y="-1620" as="targetPoint"/>
                        <Array as="points">
                            <mxPoint x="-160" y="-2040"/>
                        </Array>
                    </mxGeometry>
                </mxCell>
                <mxCell id="306" value="&lt;font color=&quot;#000000&quot;&gt;TERMINADO&lt;/font&gt;" style="text;html=1;strokeColor=none;fillColor=none;align=center;verticalAlign=middle;whiteSpace=wrap;rounded=0;fontSize=20;fontColor=#FF9933;" vertex="1" parent="1">
                    <mxGeometry x="3550" y="-1560" width="60" height="30" as="geometry"/>
                </mxCell>
                <mxCell id="307" value="" style="rounded=0;whiteSpace=wrap;html=1;" vertex="1" parent="1">
                    <mxGeometry x="2790" y="140" width="240" height="480" as="geometry"/>
                </mxCell>
                <mxCell id="308" value="/posts/:id" style="text;html=1;strokeColor=none;fillColor=none;align=center;verticalAlign=middle;whiteSpace=wrap;rounded=0;" vertex="1" parent="1">
                    <mxGeometry x="2790" y="110" width="60" height="30" as="geometry"/>
                </mxCell>
                <mxCell id="309" value="&lt;font color=&quot;#ffffff&quot;&gt;imagen&lt;/font&gt;" style="whiteSpace=wrap;html=1;aspect=fixed;fontSize=40;fontColor=#ffffff;fillColor=#d80073;strokeColor=#A50040;" vertex="1" parent="1">
                    <mxGeometry x="2810" y="220" width="200" height="200" as="geometry"/>
                </mxCell>
                <mxCell id="310" value="" style="rounded=1;whiteSpace=wrap;html=1;fontSize=40;fontColor=#FFFFFF;" vertex="1" parent="1">
                    <mxGeometry x="2810" y="185" width="200" height="35" as="geometry"/>
                </mxCell>
                <mxCell id="311" value="" style="ellipse;whiteSpace=wrap;html=1;aspect=fixed;fontSize=40;fontColor=#ffffff;fillColor=#d80073;strokeColor=#A50040;" vertex="1" parent="1">
                    <mxGeometry x="2815" y="187.5" width="30" height="30" as="geometry"/>
                </mxCell>
                <mxCell id="312" value="&lt;span style=&quot;font-size: 12px;&quot;&gt;Example&lt;/span&gt;" style="text;html=1;strokeColor=none;fillColor=none;align=left;verticalAlign=middle;whiteSpace=wrap;rounded=0;fontSize=40;fontColor=#FFFFFF;" vertex="1" parent="1">
                    <mxGeometry x="2860" y="185" width="140" height="20" as="geometry"/>
                </mxCell>
                <mxCell id="313" value="" style="rounded=0;whiteSpace=wrap;html=1;fontSize=12;fontColor=#FFFFFF;" vertex="1" parent="1">
                    <mxGeometry x="2790" y="575" width="240" height="45" as="geometry"/>
                </mxCell>
                <mxCell id="314" value="&lt;font style=&quot;font-size: 7px;&quot;&gt;INICIO (FEED)&lt;/font&gt;" style="rounded=1;whiteSpace=wrap;html=1;fontSize=12;fontColor=#ffffff;fillColor=#1ba1e2;strokeColor=#006EAF;" vertex="1" parent="1">
                    <mxGeometry x="2800" y="585" width="60" height="25" as="geometry"/>
                </mxCell>
                <mxCell id="315" value="&lt;font style=&quot;font-size: 9px;&quot;&gt;PERFIL&lt;/font&gt;" style="ellipse;whiteSpace=wrap;html=1;fontSize=12;fontColor=#ffffff;fillColor=#d80073;strokeColor=#A50040;" vertex="1" parent="1">
                    <mxGeometry x="2952.5" y="577.5" width="60" height="40" as="geometry"/>
                </mxCell>
                <mxCell id="316" value="Nombre de la red social" style="rounded=0;whiteSpace=wrap;html=1;fontSize=12;fontColor=#FFFFFF;" vertex="1" parent="1">
                    <mxGeometry x="2790" y="140" width="240" height="35" as="geometry"/>
                </mxCell>
                <mxCell id="317" value="&lt;font style=&quot;font-size: 8px;&quot;&gt;SUBIR&lt;br&gt;FOTO&lt;/font&gt;" style="ellipse;whiteSpace=wrap;html=1;aspect=fixed;fontSize=12;fontColor=#ffffff;fillColor=#1ba1e2;strokeColor=#006EAF;" vertex="1" parent="1">
                    <mxGeometry x="2891.25" y="577.5" width="37.5" height="37.5" as="geometry"/>
                </mxCell>
                <mxCell id="318" value="" style="rounded=0;whiteSpace=wrap;html=1;fontSize=8;fontColor=#FFFFFF;" vertex="1" parent="1">
                    <mxGeometry x="2808.75" y="420" width="201.25" height="150" as="geometry"/>
                </mxCell>
                <mxCell id="319" value="Cantidad de likes&lt;br&gt;Descripción del post&lt;br&gt;Cantidad de comentarios" style="text;html=1;strokeColor=none;fillColor=none;align=left;verticalAlign=middle;whiteSpace=wrap;rounded=0;fontSize=8;fontColor=#FFFFFF;" vertex="1" parent="1">
                    <mxGeometry x="2807.5" y="420" width="200" height="30" as="geometry"/>
                </mxCell>
                <mxCell id="321" value="ME GUSTA" style="ellipse;whiteSpace=wrap;html=1;fontSize=9;fontColor=#ffffff;fillColor=#1ba1e2;strokeColor=#006EAF;" vertex="1" parent="1">
                    <mxGeometry x="2940" y="425" width="60" height="20" as="geometry"/>
                </mxCell>
                <mxCell id="322" value="" style="rounded=0;whiteSpace=wrap;html=1;fontSize=20;" vertex="1" parent="1">
                    <mxGeometry x="2808.75" y="500" width="197.5" height="50" as="geometry"/>
                </mxCell>
                <mxCell id="323" value="" style="ellipse;whiteSpace=wrap;html=1;aspect=fixed;fontSize=40;fontColor=#ffffff;fillColor=#d80073;strokeColor=#A50040;" vertex="1" parent="1">
                    <mxGeometry x="2816.25" y="500" width="20" height="20" as="geometry"/>
                </mxCell>
                <mxCell id="324" value="&lt;span style=&quot;font-size: 12px;&quot;&gt;Example&lt;/span&gt;" style="text;html=1;strokeColor=none;fillColor=none;align=left;verticalAlign=middle;whiteSpace=wrap;rounded=0;fontSize=40;fontColor=#FFFFFF;" vertex="1" parent="1">
                    <mxGeometry x="2846.25" y="500" width="140" height="10" as="geometry"/>
                </mxCell>
                <mxCell id="326" value="" style="rounded=1;whiteSpace=wrap;html=1;fontSize=40;fontColor=#FFFFFF;" vertex="1" parent="1">
                    <mxGeometry x="1252.5" y="-235" width="205" height="35" as="geometry"/>
                </mxCell>
                <mxCell id="327" value="" style="ellipse;whiteSpace=wrap;html=1;aspect=fixed;fontSize=40;fontColor=#ffffff;fillColor=#d80073;strokeColor=#A50040;" vertex="1" parent="1">
                    <mxGeometry x="1260" y="-230" width="30" height="30" as="geometry"/>
                </mxCell>
                <mxCell id="328" value="&lt;span style=&quot;font-size: 12px;&quot;&gt;Example&lt;/span&gt;" style="text;html=1;strokeColor=none;fillColor=none;align=left;verticalAlign=middle;whiteSpace=wrap;rounded=0;fontSize=40;fontColor=#FFFFFF;" vertex="1" parent="1">
                    <mxGeometry x="1298.75" y="-235" width="137.5" height="20" as="geometry"/>
                </mxCell>
                <mxCell id="330" value="" style="rounded=0;whiteSpace=wrap;html=1;fontSize=20;fillColor=#d80073;fontColor=#ffffff;strokeColor=#A50040;" vertex="1" parent="1">
                    <mxGeometry x="1253.75" y="-200" width="202.5" height="40" as="geometry"/>
                </mxCell>
                <mxCell id="397" style="edgeStyle=none;html=1;exitX=0.5;exitY=1;exitDx=0;exitDy=0;fontSize=10;" edge="1" parent="1" source="331" target="121">
                    <mxGeometry relative="1" as="geometry"/>
                </mxCell>
                <mxCell id="331" value="&lt;font style=&quot;font-size: 10px;&quot;&gt;ver comentarios&lt;/font&gt;" style="rounded=1;whiteSpace=wrap;html=1;fontSize=20;fillColor=#1ba1e2;fontColor=#ffffff;strokeColor=#006EAF;" vertex="1" parent="1">
                    <mxGeometry x="1256.25" y="-260" width="80" height="15" as="geometry"/>
                </mxCell>
                <mxCell id="334" value="&lt;font color=&quot;#000000&quot;&gt;TERMINADO&lt;/font&gt;" style="text;html=1;strokeColor=none;fillColor=none;align=center;verticalAlign=middle;whiteSpace=wrap;rounded=0;fontSize=20;fontColor=#FF9933;" vertex="1" parent="1">
                    <mxGeometry x="1645" y="-675" width="60" height="30" as="geometry"/>
                </mxCell>
                <mxCell id="335" value="" style="rounded=0;whiteSpace=wrap;html=1;" vertex="1" parent="1">
                    <mxGeometry x="1276.25" y="147.5" width="240" height="480" as="geometry"/>
                </mxCell>
                <mxCell id="336" value="&lt;font style=&quot;font-size: 15px;&quot;&gt;Nombre de usuario&lt;/font&gt;" style="rounded=0;whiteSpace=wrap;html=1;fontSize=9;fontColor=#FFFFFF;" vertex="1" parent="1">
                    <mxGeometry x="1276.25" y="147.5" width="235" height="60" as="geometry"/>
                </mxCell>
                <mxCell id="337" value="FOTO&lt;br&gt;DE PERFIL" style="ellipse;whiteSpace=wrap;html=1;aspect=fixed;fontSize=15;fontColor=#ffffff;fillColor=#d80073;strokeColor=#A50040;" vertex="1" parent="1">
                    <mxGeometry x="1291.25" y="217.5" width="80" height="80" as="geometry"/>
                </mxCell>
                <mxCell id="338" value="Cantidad&lt;br&gt;de posts" style="text;html=1;strokeColor=none;fillColor=none;align=center;verticalAlign=middle;whiteSpace=wrap;rounded=0;fontSize=15;fontColor=#FFFFFF;" vertex="1" parent="1">
                    <mxGeometry x="1411.25" y="242.5" width="60" height="30" as="geometry"/>
                </mxCell>
                <mxCell id="339" value="" style="rounded=0;whiteSpace=wrap;html=1;fontSize=12;fontColor=#FFFFFF;" vertex="1" parent="1">
                    <mxGeometry x="1276.25" y="582.5" width="240" height="45" as="geometry"/>
                </mxCell>
                <mxCell id="340" value="&lt;font style=&quot;font-size: 7px;&quot;&gt;INICIO (FEED)&lt;/font&gt;" style="rounded=1;whiteSpace=wrap;html=1;fontSize=12;fontColor=#ffffff;fillColor=#1ba1e2;strokeColor=#006EAF;" vertex="1" parent="1">
                    <mxGeometry x="1286.25" y="592.5" width="60" height="25" as="geometry"/>
                </mxCell>
                <mxCell id="341" value="&lt;font style=&quot;font-size: 9px;&quot;&gt;PERFIL&lt;/font&gt;" style="ellipse;whiteSpace=wrap;html=1;fontSize=12;fontColor=#ffffff;fillColor=#d80073;strokeColor=#A50040;" vertex="1" parent="1">
                    <mxGeometry x="1438.75" y="585" width="60" height="40" as="geometry"/>
                </mxCell>
                <mxCell id="342" value="&lt;font style=&quot;font-size: 8px;&quot;&gt;SUBIR&lt;br&gt;FOTO&lt;/font&gt;" style="ellipse;whiteSpace=wrap;html=1;aspect=fixed;fontSize=12;fontColor=#ffffff;fillColor=#1ba1e2;strokeColor=#006EAF;" vertex="1" parent="1">
                    <mxGeometry x="1377.5" y="582.5" width="37.5" height="37.5" as="geometry"/>
                </mxCell>
                <mxCell id="344" value="" style="verticalLabelPosition=bottom;shadow=0;dashed=0;align=center;html=1;verticalAlign=top;strokeWidth=1;shape=mxgraph.mockup.graphics.simpleIcon;strokeColor=#A50040;fillColor=#d80073;fontSize=15;fontColor=#ffffff;" vertex="1" parent="1">
                    <mxGeometry x="1296.25" y="357.5" width="50" height="50" as="geometry"/>
                </mxCell>
                <mxCell id="345" value="" style="verticalLabelPosition=bottom;shadow=0;dashed=0;align=center;html=1;verticalAlign=top;strokeWidth=1;shape=mxgraph.mockup.graphics.simpleIcon;strokeColor=#A50040;fillColor=#d80073;fontSize=15;fontColor=#ffffff;" vertex="1" parent="1">
                    <mxGeometry x="1371.25" y="357.5" width="50" height="50" as="geometry"/>
                </mxCell>
                <mxCell id="346" value="" style="verticalLabelPosition=bottom;shadow=0;dashed=0;align=center;html=1;verticalAlign=top;strokeWidth=1;shape=mxgraph.mockup.graphics.simpleIcon;strokeColor=#A50040;fillColor=#d80073;fontSize=15;fontColor=#ffffff;" vertex="1" parent="1">
                    <mxGeometry x="1446.25" y="357.5" width="50" height="50" as="geometry"/>
                </mxCell>
                <mxCell id="347" value="" style="verticalLabelPosition=bottom;shadow=0;dashed=0;align=center;html=1;verticalAlign=top;strokeWidth=1;shape=mxgraph.mockup.graphics.simpleIcon;strokeColor=#A50040;fillColor=#d80073;fontSize=15;fontColor=#ffffff;" vertex="1" parent="1">
                    <mxGeometry x="1296.25" y="432.5" width="50" height="50" as="geometry"/>
                </mxCell>
                <mxCell id="348" value="" style="verticalLabelPosition=bottom;shadow=0;dashed=0;align=center;html=1;verticalAlign=top;strokeWidth=1;shape=mxgraph.mockup.graphics.simpleIcon;strokeColor=#A50040;fillColor=#d80073;fontSize=15;fontColor=#ffffff;" vertex="1" parent="1">
                    <mxGeometry x="1371.25" y="432.5" width="50" height="50" as="geometry"/>
                </mxCell>
                <mxCell id="349" value="" style="verticalLabelPosition=bottom;shadow=0;dashed=0;align=center;html=1;verticalAlign=top;strokeWidth=1;shape=mxgraph.mockup.graphics.simpleIcon;strokeColor=#A50040;fillColor=#d80073;fontSize=15;fontColor=#ffffff;" vertex="1" parent="1">
                    <mxGeometry x="1446.25" y="432.5" width="50" height="50" as="geometry"/>
                </mxCell>
                <mxCell id="350" value="" style="verticalLabelPosition=bottom;shadow=0;dashed=0;align=center;html=1;verticalAlign=top;strokeWidth=1;shape=mxgraph.mockup.graphics.simpleIcon;strokeColor=#A50040;fillColor=#d80073;fontSize=15;fontColor=#ffffff;" vertex="1" parent="1">
                    <mxGeometry x="1296.25" y="507.5" width="50" height="50" as="geometry"/>
                </mxCell>
                <mxCell id="351" value="" style="verticalLabelPosition=bottom;shadow=0;dashed=0;align=center;html=1;verticalAlign=top;strokeWidth=1;shape=mxgraph.mockup.graphics.simpleIcon;strokeColor=#A50040;fillColor=#d80073;fontSize=15;fontColor=#ffffff;" vertex="1" parent="1">
                    <mxGeometry x="1371.25" y="507.5" width="50" height="50" as="geometry"/>
                </mxCell>
                <mxCell id="352" value="" style="verticalLabelPosition=bottom;shadow=0;dashed=0;align=center;html=1;verticalAlign=top;strokeWidth=1;shape=mxgraph.mockup.graphics.simpleIcon;strokeColor=#A50040;fillColor=#d80073;fontSize=15;fontColor=#ffffff;" vertex="1" parent="1">
                    <mxGeometry x="1446.25" y="507.5" width="50" height="50" as="geometry"/>
                </mxCell>
                <mxCell id="353" value="/profiles/:id" style="text;html=1;strokeColor=none;fillColor=none;align=center;verticalAlign=middle;whiteSpace=wrap;rounded=0;" vertex="1" parent="1">
                    <mxGeometry x="1276.25" y="117.5" width="95" height="30" as="geometry"/>
                </mxCell>
                <mxCell id="373" value="" style="endArrow=classic;startArrow=classic;html=1;fontSize=10;exitX=0.5;exitY=0;exitDx=0;exitDy=0;entryX=0.5;entryY=1;entryDx=0;entryDy=0;" edge="1" parent="1" source="256" target="255">
                    <mxGeometry width="50" height="50" relative="1" as="geometry">
                        <mxPoint x="830" y="-2050" as="sourcePoint"/>
                        <mxPoint x="880" y="-2100" as="targetPoint"/>
                    </mxGeometry>
                </mxCell>
                <mxCell id="381" value="&lt;font color=&quot;#000000&quot;&gt;TERMINADO&lt;/font&gt;" style="text;html=1;strokeColor=none;fillColor=none;align=center;verticalAlign=middle;whiteSpace=wrap;rounded=0;fontSize=20;fontColor=#FF9933;" vertex="1" parent="1">
                    <mxGeometry x="3205" y="-730" width="60" height="30" as="geometry"/>
                </mxCell>
                <mxCell id="384" value="Escribe un comentario..." style="rounded=0;whiteSpace=wrap;html=1;fontSize=10;fillColor=#a20025;fontColor=#ffffff;strokeColor=#6F0000;" vertex="1" parent="1">
                    <mxGeometry x="2808.75" y="546.25" width="138.75" height="23.75" as="geometry"/>
                </mxCell>
                <mxCell id="385" value="ENVIAR" style="rounded=1;whiteSpace=wrap;html=1;fontSize=10;fillColor=#1ba1e2;fontColor=#ffffff;strokeColor=#006EAF;" vertex="1" parent="1">
                    <mxGeometry x="2947.5" y="546.25" width="62.5" height="23.75" as="geometry"/>
                </mxCell>
                <mxCell id="387" value="&lt;h1 style=&quot;text-align: left;&quot;&gt;&lt;font color=&quot;#000000&quot;&gt;Componentes y comportamiento de PostPage&lt;/font&gt;&lt;/h1&gt;&lt;p style=&quot;text-align: left;&quot;&gt;&lt;font color=&quot;#000000&quot;&gt;&amp;gt; h1 (nombre de la red social)&lt;/font&gt;&lt;/p&gt;&lt;p style=&quot;text-align: left;&quot;&gt;&lt;font color=&quot;#000000&quot;&gt;&amp;gt; LongPostCard (article; post ajeno):&lt;/font&gt;&lt;/p&gt;&lt;p style=&quot;text-align: left;&quot;&gt;&lt;font color=&quot;#000000&quot;&gt;&lt;span style=&quot;&quot;&gt;&#9;&lt;/span&gt;&lt;span style=&quot;&quot;&gt;&#9;&lt;/span&gt;&lt;/font&gt;&lt;span style=&quot;color: rgb(0, 0, 0); background-color: initial;&quot;&gt;&lt;span style=&quot;white-space: pre;&quot;&gt;&#9;&lt;/span&gt;&amp;gt; ShortProfileCard (section; apretarlo redirige a /profiles/:id):&lt;/span&gt;&lt;/p&gt;&lt;p style=&quot;text-align: left;&quot;&gt;&lt;font color=&quot;#000000&quot;&gt;&lt;span style=&quot;&quot;&gt;&#9;&lt;span style=&quot;&quot;&gt;&#9;&#9;&lt;/span&gt;&lt;/span&gt;&lt;span style=&quot;white-space: pre;&quot;&gt;&#9;&lt;/span&gt;&lt;span style=&quot;white-space: pre;&quot;&gt;&#9;&lt;/span&gt;&amp;gt;&amp;nbsp;img (foto de perfil del autor del post)&lt;/font&gt;&lt;/p&gt;&lt;p style=&quot;text-align: left;&quot;&gt;&lt;font color=&quot;#000000&quot;&gt;&lt;span style=&quot;&quot;&gt;&#9;&lt;span style=&quot;&quot;&gt;&#9;&#9;&lt;/span&gt;&lt;/span&gt;&lt;span style=&quot;white-space: pre;&quot;&gt;&#9;&lt;/span&gt;&lt;span style=&quot;white-space: pre;&quot;&gt;&#9;&lt;/span&gt;&amp;gt;&amp;nbsp;h2 (nombre de usuario del autor del post)&lt;/font&gt;&lt;/p&gt;&lt;p style=&quot;text-align: left;&quot;&gt;&lt;font color=&quot;#000000&quot;&gt;&lt;span style=&quot;white-space: pre;&quot;&gt;&#9;&lt;/span&gt;&amp;gt; img (imagen subida en el post)&lt;br&gt;&lt;/font&gt;&lt;/p&gt;&lt;p style=&quot;text-align: left;&quot;&gt;&lt;font color=&quot;#000000&quot;&gt;&lt;span style=&quot;white-space: pre;&quot;&gt;&#9;&lt;/span&gt;&amp;gt; p (cantidad de likes del post)&lt;/font&gt;&lt;/p&gt;&lt;p style=&quot;text-align: left;&quot;&gt;&lt;font color=&quot;#000000&quot;&gt;&lt;span style=&quot;white-space: pre;&quot;&gt;&#9;&lt;/span&gt;&amp;gt; p (descripción del post)&lt;/font&gt;&lt;/p&gt;&lt;p style=&quot;text-align: left;&quot;&gt;&lt;font color=&quot;#000000&quot;&gt;&lt;span style=&quot;white-space: pre;&quot;&gt;&#9;&lt;/span&gt;&amp;gt; p (cantidad de comentarios del post)&lt;/font&gt;&lt;/p&gt;&lt;p style=&quot;text-align: left;&quot;&gt;&lt;span style=&quot;color: rgb(0, 0, 0); background-color: initial;&quot;&gt;&lt;span style=&quot;white-space: pre;&quot;&gt;&#9;&lt;/span&gt;&amp;gt; CommentsContainer (section; los comentarios propios van arriba del todo y sin link al perfil):&lt;/span&gt;&lt;/p&gt;&lt;p style=&quot;text-align: left;&quot;&gt;&lt;font color=&quot;#000000&quot;&gt;&lt;span style=&quot;white-space: pre;&quot;&gt;&#9;&lt;span style=&quot;white-space: pre;&quot;&gt;&#9;&lt;/span&gt;&lt;/span&gt;&amp;gt; Comment (div; si es un comentario no propio, apretarlo redirige a /profiles/:id):&lt;br&gt;&lt;/font&gt;&lt;/p&gt;&lt;p style=&quot;text-align: left;&quot;&gt;&lt;font color=&quot;#000000&quot;&gt;&lt;span style=&quot;&quot;&gt;&#9;&lt;/span&gt;&lt;span style=&quot;&quot;&gt;&#9;&lt;/span&gt;&lt;span style=&quot;&quot;&gt;&#9;&lt;/span&gt;&lt;span style=&quot;&quot;&gt;&#9;&lt;/span&gt;&lt;span style=&quot;&quot;&gt;&#9;&lt;span style=&quot;&quot;&gt;&#9;&lt;span style=&quot;&quot;&gt;&#9;&lt;/span&gt;&lt;/span&gt;&lt;/span&gt;&lt;span style=&quot;&quot;&gt;&#9;&lt;/span&gt;&lt;span style=&quot;&quot;&gt;&#9;&lt;/span&gt;&lt;span style=&quot;&quot;&gt;&#9;&lt;/span&gt;&lt;span style=&quot;white-space: pre;&quot;&gt;&#9;&lt;/span&gt;&lt;span style=&quot;white-space: pre;&quot;&gt;&#9;&lt;span style=&quot;white-space: pre;&quot;&gt;&#9;&lt;/span&gt;&lt;/span&gt;&amp;gt;&amp;nbsp;img (foto de perfil del autor del comentario)&lt;br&gt;&lt;/font&gt;&lt;/p&gt;&lt;p style=&quot;text-align: left;&quot;&gt;&lt;font color=&quot;#000000&quot;&gt;&lt;span style=&quot;&quot;&gt;&#9;&lt;/span&gt;&lt;span style=&quot;&quot;&gt;&#9;&lt;/span&gt;&lt;span style=&quot;&quot;&gt;&#9;&lt;/span&gt;&lt;span style=&quot;&quot;&gt;&#9;&lt;/span&gt;&lt;span style=&quot;&quot;&gt;&#9;&lt;span style=&quot;&quot;&gt;&#9;&lt;span style=&quot;&quot;&gt;&#9;&lt;/span&gt;&lt;/span&gt;&lt;/span&gt;&lt;span style=&quot;&quot;&gt;&#9;&lt;/span&gt;&lt;span style=&quot;&quot;&gt;&#9;&lt;/span&gt;&lt;span style=&quot;&quot;&gt;&#9;&lt;/span&gt;&lt;span style=&quot;white-space: pre;&quot;&gt;&#9;&lt;/span&gt;&lt;span style=&quot;white-space: pre;&quot;&gt;&#9;&lt;span style=&quot;white-space: pre;&quot;&gt;&#9;&lt;/span&gt;&lt;/span&gt;&amp;gt;&amp;nbsp;h3 (nombre de usuario del autor del comentario)&lt;br&gt;&lt;/font&gt;&lt;/p&gt;&lt;p style=&quot;text-align: left;&quot;&gt;&lt;font color=&quot;#000000&quot;&gt;&lt;span style=&quot;&quot;&gt;&#9;&lt;/span&gt;&lt;span style=&quot;&quot;&gt;&#9;&lt;/span&gt;&lt;span style=&quot;&quot;&gt;&#9;&lt;/span&gt;&lt;span style=&quot;&quot;&gt;&#9;&lt;/span&gt;&lt;span style=&quot;&quot;&gt;&#9;&lt;span style=&quot;&quot;&gt;&#9;&lt;span style=&quot;&quot;&gt;&#9;&lt;/span&gt;&lt;/span&gt;&lt;/span&gt;&lt;span style=&quot;&quot;&gt;&#9;&lt;/span&gt;&lt;span style=&quot;&quot;&gt;&#9;&lt;/span&gt;&lt;span style=&quot;&quot;&gt;&#9;&lt;/span&gt;&lt;span style=&quot;white-space: pre;&quot;&gt;&#9;&lt;/span&gt;&lt;span style=&quot;white-space: pre;&quot;&gt;&#9;&lt;span style=&quot;white-space: pre;&quot;&gt;&#9;&lt;/span&gt;&lt;/span&gt;&amp;gt;&amp;nbsp;p (lo escrito en el comentario)&lt;/font&gt;&lt;/p&gt;&lt;p style=&quot;text-align: left;&quot;&gt;&lt;font color=&quot;#000000&quot;&gt;&lt;span style=&quot;white-space: pre;&quot;&gt;&#9;&lt;/span&gt;&amp;gt; CreateCommentForm (form):&lt;br&gt;&lt;/font&gt;&lt;/p&gt;&lt;p style=&quot;text-align: left;&quot;&gt;&lt;font color=&quot;#000000&quot;&gt;&lt;span style=&quot;white-space: pre;&quot;&gt;&#9;&lt;span style=&quot;white-space: pre;&quot;&gt;&#9;&lt;/span&gt;&lt;/span&gt;&amp;gt; NormalInput (input para el contenido del comentario)&lt;br&gt;&lt;/font&gt;&lt;/p&gt;&lt;p style=&quot;text-align: left;&quot;&gt;&lt;font color=&quot;#000000&quot;&gt;&lt;span style=&quot;white-space: pre;&quot;&gt;&#9;&lt;span style=&quot;white-space: pre;&quot;&gt;&#9;&lt;/span&gt;&lt;/span&gt;&amp;gt; CreateCommentButton (button para crear el comentario)&lt;br&gt;&lt;/font&gt;&lt;/p&gt;&lt;p style=&quot;text-align: left;&quot;&gt;&lt;font color=&quot;#000000&quot;&gt;&amp;gt; Navbar (nav):&lt;/font&gt;&lt;/p&gt;&lt;p style=&quot;text-align: left;&quot;&gt;&lt;font color=&quot;#000000&quot;&gt;&lt;span style=&quot;&quot;&gt;&#9;&lt;/span&gt;&lt;span style=&quot;&quot;&gt;&#9;&lt;/span&gt;&lt;span style=&quot;&quot;&gt;&#9;&lt;/span&gt;&lt;span style=&quot;&quot;&gt;&#9;&lt;/span&gt;&lt;span style=&quot;white-space: pre;&quot;&gt;&#9;&lt;/span&gt;- Ya vista en /myfeed&lt;/font&gt;&lt;/p&gt;" style="text;html=1;strokeColor=none;fillColor=none;spacing=5;spacingTop=-20;whiteSpace=wrap;overflow=hidden;rounded=0;align=center;" vertex="1" parent="1">
                    <mxGeometry x="3042.5" y="115" width="750" height="585" as="geometry"/>
                </mxCell>
                <mxCell id="389" value="Hola, Mundo" style="text;html=1;strokeColor=none;fillColor=none;align=center;verticalAlign=middle;whiteSpace=wrap;rounded=0;fontSize=10;" vertex="1" parent="1">
                    <mxGeometry x="2812.5" y="520" width="60" height="30" as="geometry"/>
                </mxCell>
                <mxCell id="392" value="" style="rounded=0;whiteSpace=wrap;html=1;fontSize=20;" vertex="1" parent="1">
                    <mxGeometry x="2808.75" y="450" width="197.5" height="50" as="geometry"/>
                </mxCell>
                <mxCell id="393" value="&lt;span style=&quot;font-size: 12px;&quot;&gt;Admin&lt;/span&gt;" style="text;html=1;strokeColor=none;fillColor=none;align=left;verticalAlign=middle;whiteSpace=wrap;rounded=0;fontSize=40;fontColor=#FFFFFF;" vertex="1" parent="1">
                    <mxGeometry x="2846.25" y="445" width="140" height="10" as="geometry"/>
                </mxCell>
                <mxCell id="394" value="" style="ellipse;whiteSpace=wrap;html=1;aspect=fixed;fontSize=40;fontColor=#ffffff;fillColor=#d80073;strokeColor=#A50040;" vertex="1" parent="1">
                    <mxGeometry x="2816.25" y="450" width="20" height="20" as="geometry"/>
                </mxCell>
                <mxCell id="395" value="Hola a todos" style="text;html=1;strokeColor=none;fillColor=none;align=center;verticalAlign=middle;whiteSpace=wrap;rounded=0;fontSize=10;" vertex="1" parent="1">
                    <mxGeometry x="2816.25" y="470" width="60" height="30" as="geometry"/>
                </mxCell>
                <mxCell id="398" value="&lt;font color=&quot;#000000&quot;&gt;TERMINADO&lt;/font&gt;" style="text;html=1;strokeColor=none;fillColor=none;align=center;verticalAlign=middle;whiteSpace=wrap;rounded=0;fontSize=20;fontColor=#FF9933;" vertex="1" parent="1">
                    <mxGeometry x="1828.75" y="60" width="60" height="30" as="geometry"/>
                </mxCell>
                <mxCell id="399" value="&lt;font color=&quot;#000000&quot;&gt;TERMINADO&lt;/font&gt;" style="text;html=1;strokeColor=none;fillColor=none;align=center;verticalAlign=middle;whiteSpace=wrap;rounded=0;fontSize=20;fontColor=#FF9933;" vertex="1" parent="1">
                    <mxGeometry x="3330" y="60" width="60" height="30" as="geometry"/>
                </mxCell>
                <mxCell id="400" value="" style="rounded=1;whiteSpace=wrap;html=1;fontSize=40;fontColor=#ffffff;fillColor=#60a917;strokeColor=#2D7600;" vertex="1" parent="1">
                    <mxGeometry x="4170" y="-760" width="1240" height="710" as="geometry"/>
                </mxCell>
                <mxCell id="401" value="" style="rounded=0;whiteSpace=wrap;html=1;" vertex="1" parent="1">
                    <mxGeometry x="4260" y="-660" width="240" height="480" as="geometry"/>
                </mxCell>
                <mxCell id="402" value="/myposts/:id" style="text;html=1;strokeColor=none;fillColor=none;align=center;verticalAlign=middle;whiteSpace=wrap;rounded=0;" vertex="1" parent="1">
                    <mxGeometry x="4260" y="-690" width="60" height="30" as="geometry"/>
                </mxCell>
                <mxCell id="403" value="&lt;font color=&quot;#ffffff&quot;&gt;imagen&lt;/font&gt;" style="whiteSpace=wrap;html=1;aspect=fixed;fontSize=40;fontColor=#ffffff;fillColor=#d80073;strokeColor=#A50040;" vertex="1" parent="1">
                    <mxGeometry x="4280" y="-580" width="200" height="200" as="geometry"/>
                </mxCell>
                <mxCell id="404" value="" style="rounded=1;whiteSpace=wrap;html=1;fontSize=40;fontColor=#FFFFFF;" vertex="1" parent="1">
                    <mxGeometry x="4280" y="-615" width="200" height="35" as="geometry"/>
                </mxCell>
                <mxCell id="405" value="" style="ellipse;whiteSpace=wrap;html=1;aspect=fixed;fontSize=40;fontColor=#ffffff;fillColor=#d80073;strokeColor=#A50040;" vertex="1" parent="1">
                    <mxGeometry x="4285" y="-612.5" width="30" height="30" as="geometry"/>
                </mxCell>
                <mxCell id="406" value="&lt;span style=&quot;font-size: 12px;&quot;&gt;Example&lt;/span&gt;" style="text;html=1;strokeColor=none;fillColor=none;align=left;verticalAlign=middle;whiteSpace=wrap;rounded=0;fontSize=40;fontColor=#FFFFFF;" vertex="1" parent="1">
                    <mxGeometry x="4330" y="-615" width="140" height="20" as="geometry"/>
                </mxCell>
                <mxCell id="407" value="" style="rounded=0;whiteSpace=wrap;html=1;fontSize=12;fontColor=#FFFFFF;" vertex="1" parent="1">
                    <mxGeometry x="4260" y="-225" width="240" height="45" as="geometry"/>
                </mxCell>
                <mxCell id="408" value="&lt;font style=&quot;font-size: 7px;&quot;&gt;INICIO (FEED)&lt;/font&gt;" style="rounded=1;whiteSpace=wrap;html=1;fontSize=12;fontColor=#ffffff;fillColor=#1ba1e2;strokeColor=#006EAF;" vertex="1" parent="1">
                    <mxGeometry x="4270" y="-215" width="60" height="25" as="geometry"/>
                </mxCell>
                <mxCell id="409" value="&lt;font style=&quot;font-size: 9px;&quot;&gt;PERFIL&lt;/font&gt;" style="ellipse;whiteSpace=wrap;html=1;fontSize=12;fontColor=#ffffff;fillColor=#d80073;strokeColor=#A50040;" vertex="1" parent="1">
                    <mxGeometry x="4422.5" y="-222.5" width="60" height="40" as="geometry"/>
                </mxCell>
                <mxCell id="410" value="Nombre de la red social" style="rounded=0;whiteSpace=wrap;html=1;fontSize=12;fontColor=#FFFFFF;" vertex="1" parent="1">
                    <mxGeometry x="4260" y="-660" width="240" height="35" as="geometry"/>
                </mxCell>
                <mxCell id="411" value="&lt;font style=&quot;font-size: 8px;&quot;&gt;SUBIR&lt;br&gt;FOTO&lt;/font&gt;" style="ellipse;whiteSpace=wrap;html=1;aspect=fixed;fontSize=12;fontColor=#ffffff;fillColor=#1ba1e2;strokeColor=#006EAF;" vertex="1" parent="1">
                    <mxGeometry x="4361.25" y="-222.5" width="37.5" height="37.5" as="geometry"/>
                </mxCell>
                <mxCell id="412" value="" style="rounded=0;whiteSpace=wrap;html=1;fontSize=8;fontColor=#FFFFFF;" vertex="1" parent="1">
                    <mxGeometry x="4278.75" y="-380" width="201.25" height="150" as="geometry"/>
                </mxCell>
                <mxCell id="413" value="Cantidad de likes&lt;br&gt;Descripción del post&lt;br&gt;Cantidad de comentarios" style="text;html=1;strokeColor=none;fillColor=none;align=left;verticalAlign=middle;whiteSpace=wrap;rounded=0;fontSize=8;fontColor=#FFFFFF;" vertex="1" parent="1">
                    <mxGeometry x="4277.5" y="-380" width="200" height="30" as="geometry"/>
                </mxCell>
                <mxCell id="414" value="ME GUSTA" style="ellipse;whiteSpace=wrap;html=1;fontSize=9;fontColor=#ffffff;fillColor=#1ba1e2;strokeColor=#006EAF;" vertex="1" parent="1">
                    <mxGeometry x="4410" y="-375" width="60" height="20" as="geometry"/>
                </mxCell>
                <mxCell id="415" value="" style="rounded=0;whiteSpace=wrap;html=1;fontSize=20;" vertex="1" parent="1">
                    <mxGeometry x="4278.75" y="-300" width="197.5" height="50" as="geometry"/>
                </mxCell>
                <mxCell id="416" value="" style="ellipse;whiteSpace=wrap;html=1;aspect=fixed;fontSize=40;fontColor=#ffffff;fillColor=#d80073;strokeColor=#A50040;" vertex="1" parent="1">
                    <mxGeometry x="4286.25" y="-300" width="20" height="20" as="geometry"/>
                </mxCell>
                <mxCell id="417" value="&lt;span style=&quot;font-size: 12px;&quot;&gt;Example&lt;/span&gt;" style="text;html=1;strokeColor=none;fillColor=none;align=left;verticalAlign=middle;whiteSpace=wrap;rounded=0;fontSize=40;fontColor=#FFFFFF;" vertex="1" parent="1">
                    <mxGeometry x="4316.25" y="-300" width="140" height="10" as="geometry"/>
                </mxCell>
                <mxCell id="418" value="Escribe un comentario..." style="rounded=0;whiteSpace=wrap;html=1;fontSize=10;fillColor=#a20025;fontColor=#ffffff;strokeColor=#6F0000;" vertex="1" parent="1">
                    <mxGeometry x="4278.75" y="-253.75" width="138.75" height="23.75" as="geometry"/>
                </mxCell>
                <mxCell id="419" value="ENVIAR" style="rounded=1;whiteSpace=wrap;html=1;fontSize=10;fillColor=#1ba1e2;fontColor=#ffffff;strokeColor=#006EAF;" vertex="1" parent="1">
                    <mxGeometry x="4417.5" y="-253.75" width="62.5" height="23.75" as="geometry"/>
                </mxCell>
                <mxCell id="420" value="&lt;h1 style=&quot;text-align: left;&quot;&gt;&lt;font color=&quot;#000000&quot;&gt;Componentes y comportamiento de MyPostPage&lt;/font&gt;&lt;/h1&gt;&lt;p style=&quot;text-align: left;&quot;&gt;&lt;font color=&quot;#000000&quot;&gt;&amp;gt; h1 (nombre de la red social)&lt;/font&gt;&lt;/p&gt;&lt;p style=&quot;text-align: left;&quot;&gt;&lt;font color=&quot;#000000&quot;&gt;&amp;gt; LongPostCard (article; post ajeno):&lt;/font&gt;&lt;/p&gt;&lt;p style=&quot;text-align: left;&quot;&gt;&lt;font color=&quot;#000000&quot;&gt;&lt;span style=&quot;&quot;&gt;&#9;&lt;/span&gt;&lt;span style=&quot;&quot;&gt;&#9;&lt;/span&gt;&lt;/font&gt;&lt;span style=&quot;color: rgb(0, 0, 0); background-color: initial;&quot;&gt;&lt;span style=&quot;white-space: pre;&quot;&gt;&#9;&lt;/span&gt;&amp;gt; ShortProfileCard (section):&lt;/span&gt;&lt;/p&gt;&lt;p style=&quot;text-align: left;&quot;&gt;&lt;font color=&quot;#000000&quot;&gt;&lt;span style=&quot;&quot;&gt;&#9;&lt;span style=&quot;&quot;&gt;&#9;&#9;&lt;/span&gt;&lt;/span&gt;&lt;span style=&quot;white-space: pre;&quot;&gt;&#9;&lt;/span&gt;&lt;span style=&quot;white-space: pre;&quot;&gt;&#9;&lt;/span&gt;&amp;gt;&amp;nbsp;img (foto de perfil propia)&lt;/font&gt;&lt;/p&gt;&lt;p style=&quot;text-align: left;&quot;&gt;&lt;font color=&quot;#000000&quot;&gt;&lt;span style=&quot;&quot;&gt;&#9;&lt;span style=&quot;&quot;&gt;&#9;&#9;&lt;/span&gt;&lt;/span&gt;&lt;span style=&quot;white-space: pre;&quot;&gt;&#9;&lt;/span&gt;&lt;span style=&quot;white-space: pre;&quot;&gt;&#9;&lt;/span&gt;&amp;gt;&amp;nbsp;h2 (nombre de usuario propio)&lt;/font&gt;&lt;/p&gt;&lt;p style=&quot;text-align: left;&quot;&gt;&lt;font color=&quot;#000000&quot;&gt;&lt;span style=&quot;white-space: pre;&quot;&gt;&#9;&lt;/span&gt;&amp;gt; img (imagen subida en el post)&lt;br&gt;&lt;/font&gt;&lt;/p&gt;&lt;p style=&quot;text-align: left;&quot;&gt;&lt;font color=&quot;#000000&quot;&gt;&lt;span style=&quot;white-space: pre;&quot;&gt;&#9;&lt;/span&gt;&amp;gt; p (cantidad de likes del post)&lt;/font&gt;&lt;/p&gt;&lt;p style=&quot;text-align: left;&quot;&gt;&lt;font color=&quot;#000000&quot;&gt;&lt;span style=&quot;white-space: pre;&quot;&gt;&#9;&lt;/span&gt;&amp;gt; p (descripción del post)&lt;/font&gt;&lt;/p&gt;&lt;p style=&quot;text-align: left;&quot;&gt;&lt;font color=&quot;#000000&quot;&gt;&lt;span style=&quot;white-space: pre;&quot;&gt;&#9;&lt;/span&gt;&amp;gt; p (cantidad de comentarios del post)&lt;/font&gt;&lt;/p&gt;&lt;p style=&quot;text-align: left;&quot;&gt;&lt;span style=&quot;color: rgb(0, 0, 0); background-color: initial;&quot;&gt;&lt;span style=&quot;white-space: pre;&quot;&gt;&#9;&lt;/span&gt;&amp;gt; CommentsContainer (section; los comentarios propios van arriba del todo y sin link al perfil):&lt;/span&gt;&lt;/p&gt;&lt;p style=&quot;text-align: left;&quot;&gt;&lt;font color=&quot;#000000&quot;&gt;&lt;span style=&quot;white-space: pre;&quot;&gt;&#9;&lt;span style=&quot;white-space: pre;&quot;&gt;&#9;&lt;/span&gt;&lt;/span&gt;&amp;gt; Comment (div; si es un comentario no propio, apretarlo redirige a /profiles/:id):&lt;br&gt;&lt;/font&gt;&lt;/p&gt;&lt;p style=&quot;text-align: left;&quot;&gt;&lt;font color=&quot;#000000&quot;&gt;&lt;span style=&quot;&quot;&gt;&#9;&lt;/span&gt;&lt;span style=&quot;&quot;&gt;&#9;&lt;/span&gt;&lt;span style=&quot;&quot;&gt;&#9;&lt;/span&gt;&lt;span style=&quot;&quot;&gt;&#9;&lt;/span&gt;&lt;span style=&quot;&quot;&gt;&#9;&lt;span style=&quot;&quot;&gt;&#9;&lt;span style=&quot;&quot;&gt;&#9;&lt;/span&gt;&lt;/span&gt;&lt;/span&gt;&lt;span style=&quot;&quot;&gt;&#9;&lt;/span&gt;&lt;span style=&quot;&quot;&gt;&#9;&lt;/span&gt;&lt;span style=&quot;&quot;&gt;&#9;&lt;/span&gt;&lt;span style=&quot;white-space: pre;&quot;&gt;&#9;&lt;/span&gt;&lt;span style=&quot;white-space: pre;&quot;&gt;&#9;&lt;span style=&quot;white-space: pre;&quot;&gt;&#9;&lt;/span&gt;&lt;/span&gt;&amp;gt;&amp;nbsp;img (foto de perfil del autor del comentario)&lt;br&gt;&lt;/font&gt;&lt;/p&gt;&lt;p style=&quot;text-align: left;&quot;&gt;&lt;font color=&quot;#000000&quot;&gt;&lt;span style=&quot;&quot;&gt;&#9;&lt;/span&gt;&lt;span style=&quot;&quot;&gt;&#9;&lt;/span&gt;&lt;span style=&quot;&quot;&gt;&#9;&lt;/span&gt;&lt;span style=&quot;&quot;&gt;&#9;&lt;/span&gt;&lt;span style=&quot;&quot;&gt;&#9;&lt;span style=&quot;&quot;&gt;&#9;&lt;span style=&quot;&quot;&gt;&#9;&lt;/span&gt;&lt;/span&gt;&lt;/span&gt;&lt;span style=&quot;&quot;&gt;&#9;&lt;/span&gt;&lt;span style=&quot;&quot;&gt;&#9;&lt;/span&gt;&lt;span style=&quot;&quot;&gt;&#9;&lt;/span&gt;&lt;span style=&quot;white-space: pre;&quot;&gt;&#9;&lt;/span&gt;&lt;span style=&quot;white-space: pre;&quot;&gt;&#9;&lt;span style=&quot;white-space: pre;&quot;&gt;&#9;&lt;/span&gt;&lt;/span&gt;&amp;gt;&amp;nbsp;h3 (nombre de usuario del autor del comentario)&lt;br&gt;&lt;/font&gt;&lt;/p&gt;&lt;p style=&quot;text-align: left;&quot;&gt;&lt;font color=&quot;#000000&quot;&gt;&lt;span style=&quot;&quot;&gt;&#9;&lt;/span&gt;&lt;span style=&quot;&quot;&gt;&#9;&lt;/span&gt;&lt;span style=&quot;&quot;&gt;&#9;&lt;/span&gt;&lt;span style=&quot;&quot;&gt;&#9;&lt;/span&gt;&lt;span style=&quot;&quot;&gt;&#9;&lt;span style=&quot;&quot;&gt;&#9;&lt;span style=&quot;&quot;&gt;&#9;&lt;/span&gt;&lt;/span&gt;&lt;/span&gt;&lt;span style=&quot;&quot;&gt;&#9;&lt;/span&gt;&lt;span style=&quot;&quot;&gt;&#9;&lt;/span&gt;&lt;span style=&quot;&quot;&gt;&#9;&lt;/span&gt;&lt;span style=&quot;white-space: pre;&quot;&gt;&#9;&lt;/span&gt;&lt;span style=&quot;white-space: pre;&quot;&gt;&#9;&lt;span style=&quot;white-space: pre;&quot;&gt;&#9;&lt;/span&gt;&lt;/span&gt;&amp;gt;&amp;nbsp;p (lo escrito en el comentario)&lt;/font&gt;&lt;/p&gt;&lt;p style=&quot;text-align: left;&quot;&gt;&lt;font color=&quot;#000000&quot;&gt;&lt;span style=&quot;white-space: pre;&quot;&gt;&#9;&lt;/span&gt;&amp;gt; CreateCommentForm (form):&lt;br&gt;&lt;/font&gt;&lt;/p&gt;&lt;p style=&quot;text-align: left;&quot;&gt;&lt;font color=&quot;#000000&quot;&gt;&lt;span style=&quot;white-space: pre;&quot;&gt;&#9;&lt;span style=&quot;white-space: pre;&quot;&gt;&#9;&lt;/span&gt;&lt;/span&gt;&amp;gt; NormalInput (input para el contenido del comentario)&lt;br&gt;&lt;/font&gt;&lt;/p&gt;&lt;p style=&quot;text-align: left;&quot;&gt;&lt;font color=&quot;#000000&quot;&gt;&lt;span style=&quot;white-space: pre;&quot;&gt;&#9;&lt;span style=&quot;white-space: pre;&quot;&gt;&#9;&lt;/span&gt;&lt;/span&gt;&amp;gt; CreateCommentButton (button para crear el comentario)&lt;br&gt;&lt;/font&gt;&lt;/p&gt;&lt;p style=&quot;text-align: left;&quot;&gt;&lt;font color=&quot;#000000&quot;&gt;&amp;gt; Navbar (nav):&lt;/font&gt;&lt;/p&gt;&lt;p style=&quot;text-align: left;&quot;&gt;&lt;font color=&quot;#000000&quot;&gt;&lt;span style=&quot;&quot;&gt;&#9;&lt;/span&gt;&lt;span style=&quot;&quot;&gt;&#9;&lt;/span&gt;&lt;span style=&quot;&quot;&gt;&#9;&lt;/span&gt;&lt;span style=&quot;&quot;&gt;&#9;&lt;/span&gt;&lt;span style=&quot;white-space: pre;&quot;&gt;&#9;&lt;/span&gt;- Ya vista en /myfeed&lt;/font&gt;&lt;/p&gt;" style="text;html=1;strokeColor=none;fillColor=none;spacing=5;spacingTop=-20;whiteSpace=wrap;overflow=hidden;rounded=0;align=center;" vertex="1" parent="1">
                    <mxGeometry x="4512.5" y="-685" width="750" height="585" as="geometry"/>
                </mxCell>
                <mxCell id="421" value="Hola, Mundo" style="text;html=1;strokeColor=none;fillColor=none;align=center;verticalAlign=middle;whiteSpace=wrap;rounded=0;fontSize=10;" vertex="1" parent="1">
                    <mxGeometry x="4282.5" y="-280" width="60" height="30" as="geometry"/>
                </mxCell>
                <mxCell id="422" value="" style="rounded=0;whiteSpace=wrap;html=1;fontSize=20;" vertex="1" parent="1">
                    <mxGeometry x="4278.75" y="-350" width="197.5" height="50" as="geometry"/>
                </mxCell>
                <mxCell id="423" value="&lt;span style=&quot;font-size: 12px;&quot;&gt;Admin&lt;/span&gt;" style="text;html=1;strokeColor=none;fillColor=none;align=left;verticalAlign=middle;whiteSpace=wrap;rounded=0;fontSize=40;fontColor=#FFFFFF;" vertex="1" parent="1">
                    <mxGeometry x="4316.25" y="-355" width="140" height="10" as="geometry"/>
                </mxCell>
                <mxCell id="424" value="" style="ellipse;whiteSpace=wrap;html=1;aspect=fixed;fontSize=40;fontColor=#ffffff;fillColor=#d80073;strokeColor=#A50040;" vertex="1" parent="1">
                    <mxGeometry x="4286.25" y="-350" width="20" height="20" as="geometry"/>
                </mxCell>
                <mxCell id="425" value="Hola a todos" style="text;html=1;strokeColor=none;fillColor=none;align=center;verticalAlign=middle;whiteSpace=wrap;rounded=0;fontSize=10;" vertex="1" parent="1">
                    <mxGeometry x="4286.25" y="-330" width="60" height="30" as="geometry"/>
                </mxCell>
                <mxCell id="426" value="&lt;font color=&quot;#000000&quot;&gt;TERMINADO&lt;/font&gt;" style="text;html=1;strokeColor=none;fillColor=none;align=center;verticalAlign=middle;whiteSpace=wrap;rounded=0;fontSize=20;fontColor=#FF9933;" vertex="1" parent="1">
                    <mxGeometry x="4800" y="-740" width="60" height="30" as="geometry"/>
                </mxCell>
                <mxCell id="427" value="borrar post" style="rounded=1;whiteSpace=wrap;html=1;labelBackgroundColor=none;fontSize=10;fillColor=#1ba1e2;fontColor=#ffffff;strokeColor=#006EAF;" vertex="1" parent="1">
                    <mxGeometry x="4416.25" y="-607.5" width="60" height="20" as="geometry"/>
                </mxCell>
                <mxCell id="428" value="" style="rounded=1;whiteSpace=wrap;html=1;fontSize=40;fontColor=#ffffff;fillColor=#60a917;strokeColor=#2D7600;" vertex="1" parent="1">
                    <mxGeometry x="4970" y="40" width="1240" height="710" as="geometry"/>
                </mxCell>
                <mxCell id="429" value="" style="rounded=0;whiteSpace=wrap;html=1;" vertex="1" parent="1">
                    <mxGeometry x="4360" y="140" width="240" height="480" as="geometry"/>
                </mxCell>
                <mxCell id="430" value="/myprofile/edit" style="text;html=1;strokeColor=none;fillColor=none;align=center;verticalAlign=middle;whiteSpace=wrap;rounded=0;" vertex="1" parent="1">
                    <mxGeometry x="4360" y="110" width="100" height="30" as="geometry"/>
                </mxCell>
                <mxCell id="438" value="Editar perfil" style="rounded=0;whiteSpace=wrap;html=1;fontSize=12;fontColor=#FFFFFF;" vertex="1" parent="1">
                    <mxGeometry x="4360" y="140" width="240" height="35" as="geometry"/>
                </mxCell>
                <mxCell id="448" value="&lt;h1 style=&quot;text-align: left;&quot;&gt;&lt;font color=&quot;#000000&quot;&gt;Componentes y comportamiento de EditMyProfilePage&lt;/font&gt;&lt;/h1&gt;&lt;p style=&quot;text-align: left;&quot;&gt;&lt;font color=&quot;#000000&quot;&gt;&amp;gt; h1 (nombre de la red social)&lt;/font&gt;&lt;/p&gt;&lt;p style=&quot;text-align: left;&quot;&gt;&lt;br&gt;&lt;/p&gt;" style="text;html=1;strokeColor=none;fillColor=none;spacing=5;spacingTop=-20;whiteSpace=wrap;overflow=hidden;rounded=0;align=center;" vertex="1" parent="1">
                    <mxGeometry x="5080" y="115" width="577.5" height="585" as="geometry"/>
                </mxCell>
                <mxCell id="456" value="EDITAR NOMBRE" style="rounded=1;whiteSpace=wrap;html=1;labelBackgroundColor=none;fontSize=10;fillColor=#1ba1e2;fontColor=#ffffff;strokeColor=#006EAF;" vertex="1" parent="1">
                    <mxGeometry x="4422.5" y="237.5" width="120" height="60" as="geometry"/>
                </mxCell>
                <mxCell id="457" value="EDITAR CONTRASEÑA" style="rounded=1;whiteSpace=wrap;html=1;labelBackgroundColor=none;fontSize=10;fillColor=#1ba1e2;fontColor=#ffffff;strokeColor=#006EAF;" vertex="1" parent="1">
                    <mxGeometry x="4420" y="345" width="120" height="60" as="geometry"/>
                </mxCell>
                <mxCell id="458" value="VOLVER A MI PERFIL" style="rounded=1;whiteSpace=wrap;html=1;labelBackgroundColor=none;fontSize=10;fillColor=#1ba1e2;fontColor=#ffffff;strokeColor=#006EAF;" vertex="1" parent="1">
                    <mxGeometry x="4420" y="450" width="120" height="60" as="geometry"/>
                </mxCell>
                <mxCell id="459" value="" style="rounded=0;whiteSpace=wrap;html=1;" vertex="1" parent="1">
                    <mxGeometry x="4680" y="135" width="240" height="480" as="geometry"/>
                </mxCell>
                <mxCell id="461" value="Editar perfil" style="rounded=0;whiteSpace=wrap;html=1;fontSize=12;fontColor=#FFFFFF;" vertex="1" parent="1">
                    <mxGeometry x="4680" y="135" width="240" height="35" as="geometry"/>
                </mxCell>
                <mxCell id="466" value="/myprofile/edit" style="text;html=1;strokeColor=none;fillColor=none;align=center;verticalAlign=middle;whiteSpace=wrap;rounded=0;" vertex="1" parent="1">
                    <mxGeometry x="4680" y="105" width="100" height="30" as="geometry"/>
                </mxCell>
                <mxCell id="467" value="Admin2" style="rounded=1;whiteSpace=wrap;html=1;labelBackgroundColor=none;fontSize=10;align=center;fillColor=#a20025;fontColor=#ffffff;strokeColor=#6F0000;" vertex="1" parent="1">
                    <mxGeometry x="4730" y="256.25" width="150" height="22.5" as="geometry"/>
                </mxCell>
                <mxCell id="468" value="Nuevo nombre" style="text;html=1;strokeColor=none;fillColor=none;align=center;verticalAlign=middle;whiteSpace=wrap;rounded=0;labelBackgroundColor=none;fontSize=10;" vertex="1" parent="1">
                    <mxGeometry x="4730" y="226.25" width="80" height="30" as="geometry"/>
                </mxCell>
                <mxCell id="469" value="Contraseña para confirmar" style="text;html=1;strokeColor=none;fillColor=none;align=center;verticalAlign=middle;whiteSpace=wrap;rounded=0;labelBackgroundColor=none;fontSize=10;" vertex="1" parent="1">
                    <mxGeometry x="4727.5" y="327.5" width="130" height="30" as="geometry"/>
                </mxCell>
                <mxCell id="470" value="*************" style="rounded=1;whiteSpace=wrap;html=1;labelBackgroundColor=none;fontSize=10;fillColor=#a20025;fontColor=#ffffff;strokeColor=#6F0000;" vertex="1" parent="1">
                    <mxGeometry x="4727.5" y="357.5" width="150" height="22.5" as="geometry"/>
                </mxCell>
                <mxCell id="471" value="ACEPTAR" style="rounded=1;whiteSpace=wrap;html=1;labelBackgroundColor=none;fontSize=10;fillColor=#1ba1e2;fontColor=#ffffff;strokeColor=#006EAF;" vertex="1" parent="1">
                    <mxGeometry x="4745" y="420" width="120" height="60" as="geometry"/>
                </mxCell>
                <mxCell id="472" value="CANCELAR" style="rounded=1;whiteSpace=wrap;html=1;labelBackgroundColor=none;fontSize=10;fillColor=#1ba1e2;fontColor=#ffffff;strokeColor=#006EAF;" vertex="1" parent="1">
                    <mxGeometry x="4745" y="505" width="120" height="60" as="geometry"/>
                </mxCell>
                <mxCell id="473" value="CAMBIAR NOMBRE" style="text;html=1;strokeColor=none;fillColor=none;align=center;verticalAlign=middle;whiteSpace=wrap;rounded=0;labelBackgroundColor=none;fontSize=10;" vertex="1" parent="1">
                    <mxGeometry x="4742.5" y="190" width="115" height="30" as="geometry"/>
                </mxCell>
                <mxCell id="474" value="" style="rounded=0;whiteSpace=wrap;html=1;" vertex="1" parent="1">
                    <mxGeometry x="4682.5" y="710" width="240" height="480" as="geometry"/>
                </mxCell>
                <mxCell id="475" value="Editar perfil" style="rounded=0;whiteSpace=wrap;html=1;fontSize=12;fontColor=#FFFFFF;" vertex="1" parent="1">
                    <mxGeometry x="4682.5" y="710" width="240" height="35" as="geometry"/>
                </mxCell>
                <mxCell id="476" value="/myprofile/edit" style="text;html=1;strokeColor=none;fillColor=none;align=center;verticalAlign=middle;whiteSpace=wrap;rounded=0;" vertex="1" parent="1">
                    <mxGeometry x="4682.5" y="680" width="100" height="30" as="geometry"/>
                </mxCell>
                <mxCell id="477" value="Admin2" style="rounded=1;whiteSpace=wrap;html=1;labelBackgroundColor=none;fontSize=10;align=center;fillColor=#a20025;fontColor=#ffffff;strokeColor=#6F0000;" vertex="1" parent="1">
                    <mxGeometry x="4732.5" y="831.25" width="150" height="22.5" as="geometry"/>
                </mxCell>
                <mxCell id="478" value="Nueva contraseña" style="text;html=1;strokeColor=none;fillColor=none;align=center;verticalAlign=middle;whiteSpace=wrap;rounded=0;labelBackgroundColor=none;fontSize=10;" vertex="1" parent="1">
                    <mxGeometry x="4732.5" y="801.25" width="97.5" height="30" as="geometry"/>
                </mxCell>
                <mxCell id="479" value="Contraseña actual para confirmar" style="text;html=1;strokeColor=none;fillColor=none;align=center;verticalAlign=middle;whiteSpace=wrap;rounded=0;labelBackgroundColor=none;fontSize=10;" vertex="1" parent="1">
                    <mxGeometry x="4730" y="902.5" width="130" height="30" as="geometry"/>
                </mxCell>
                <mxCell id="480" value="*************" style="rounded=1;whiteSpace=wrap;html=1;labelBackgroundColor=none;fontSize=10;fillColor=#a20025;fontColor=#ffffff;strokeColor=#6F0000;" vertex="1" parent="1">
                    <mxGeometry x="4730" y="932.5" width="150" height="22.5" as="geometry"/>
                </mxCell>
                <mxCell id="481" value="ACEPTAR" style="rounded=1;whiteSpace=wrap;html=1;labelBackgroundColor=none;fontSize=10;fillColor=#1ba1e2;fontColor=#ffffff;strokeColor=#006EAF;" vertex="1" parent="1">
                    <mxGeometry x="4747.5" y="995" width="120" height="60" as="geometry"/>
                </mxCell>
                <mxCell id="482" value="CANCELAR" style="rounded=1;whiteSpace=wrap;html=1;labelBackgroundColor=none;fontSize=10;fillColor=#1ba1e2;fontColor=#ffffff;strokeColor=#006EAF;" vertex="1" parent="1">
                    <mxGeometry x="4747.5" y="1080" width="120" height="60" as="geometry"/>
                </mxCell>
                <mxCell id="483" value="CAMBIAR CONTRASEÑA" style="text;html=1;strokeColor=none;fillColor=none;align=center;verticalAlign=middle;whiteSpace=wrap;rounded=0;labelBackgroundColor=none;fontSize=10;" vertex="1" parent="1">
                    <mxGeometry x="4722.5" y="765" width="155" height="30" as="geometry"/>
                </mxCell>
                <mxCell id="484" value="Admin2" style="rounded=1;whiteSpace=wrap;html=1;labelBackgroundColor=none;fontSize=10;align=center;fillColor=#a20025;fontColor=#ffffff;strokeColor=#6F0000;" vertex="1" parent="1">
                    <mxGeometry x="4730" y="870" width="150" height="22.5" as="geometry"/>
                </mxCell>
                <mxCell id="491" style="edgeStyle=none;html=1;exitX=1;exitY=1;exitDx=0;exitDy=0;entryX=0;entryY=0.5;entryDx=0;entryDy=0;fontSize=20;" edge="1" parent="1" source="485" target="254">
                    <mxGeometry relative="1" as="geometry"/>
                </mxCell>
                <mxCell id="485" value="&lt;font style=&quot;font-size: 20px;&quot;&gt;USAR NAVBAR&lt;/font&gt;" style="ellipse;whiteSpace=wrap;html=1;aspect=fixed;labelBackgroundColor=none;fontSize=10;fillColor=#a20025;fontColor=#ffffff;strokeColor=#6F0000;" vertex="1" parent="1">
                    <mxGeometry x="410" y="-2720" width="140" height="140" as="geometry"/>
                </mxCell>
                <mxCell id="487" value="" style="endArrow=classic;startArrow=classic;html=1;fontSize=20;entryX=0.5;entryY=1;entryDx=0;entryDy=0;" edge="1" parent="1" source="253" target="485">
                    <mxGeometry width="50" height="50" relative="1" as="geometry">
                        <mxPoint x="640" y="-2390" as="sourcePoint"/>
                        <mxPoint x="690" y="-2440" as="targetPoint"/>
                    </mxGeometry>
                </mxCell>
                <mxCell id="488" value="" style="endArrow=classic;startArrow=classic;html=1;fontSize=20;entryX=0;entryY=0.5;entryDx=0;entryDy=0;exitX=1;exitY=0.5;exitDx=0;exitDy=0;" edge="1" parent="1" source="485" target="258">
                    <mxGeometry width="50" height="50" relative="1" as="geometry">
                        <mxPoint x="640" y="-2580" as="sourcePoint"/>
                        <mxPoint x="690" y="-2630" as="targetPoint"/>
                    </mxGeometry>
                </mxCell>
                <mxCell id="489" value="" style="endArrow=classic;startArrow=classic;html=1;fontSize=20;entryX=0.5;entryY=1;entryDx=0;entryDy=0;exitX=0.5;exitY=0;exitDx=0;exitDy=0;" edge="1" parent="1" source="485" target="259">
                    <mxGeometry width="50" height="50" relative="1" as="geometry">
                        <mxPoint x="640" y="-2760" as="sourcePoint"/>
                        <mxPoint x="825" y="-2640" as="targetPoint"/>
                    </mxGeometry>
                </mxCell>
                <mxCell id="490" value="" style="endArrow=classic;startArrow=classic;html=1;fontSize=20;exitX=0.5;exitY=0;exitDx=0;exitDy=0;entryX=0.5;entryY=1;entryDx=0;entryDy=0;" edge="1" parent="1" source="255" target="254">
                    <mxGeometry width="50" height="50" relative="1" as="geometry">
                        <mxPoint x="810" y="-2340" as="sourcePoint"/>
                        <mxPoint x="860" y="-2390" as="targetPoint"/>
                    </mxGeometry>
                </mxCell>
                <mxCell id="492" value="" style="endArrow=classic;startArrow=classic;html=1;fontSize=20;entryX=0;entryY=0.5;entryDx=0;entryDy=0;exitX=1;exitY=0.5;exitDx=0;exitDy=0;" edge="1" parent="1" source="260" target="485">
                    <mxGeometry width="50" height="50" relative="1" as="geometry">
                        <mxPoint x="90" y="-2470" as="sourcePoint"/>
                        <mxPoint x="140" y="-2520" as="targetPoint"/>
                    </mxGeometry>
                </mxCell>
                <mxCell id="494" value="" style="endArrow=classic;startArrow=classic;html=1;fontSize=20;entryX=0.733;entryY=0.952;entryDx=0;entryDy=0;entryPerimeter=0;exitX=0;exitY=0;exitDx=0;exitDy=0;" edge="1" parent="1" source="255" target="485">
                    <mxGeometry width="50" height="50" relative="1" as="geometry">
                        <mxPoint x="650" y="-2380" as="sourcePoint"/>
                        <mxPoint x="700" y="-2430" as="targetPoint"/>
                    </mxGeometry>
                </mxCell>
                <mxCell id="495" value="&lt;h1&gt;Lo rojo son las rutas a las que lleva el navbar.&lt;/h1&gt;" style="text;html=1;strokeColor=none;fillColor=none;spacing=5;spacingTop=-20;whiteSpace=wrap;overflow=hidden;rounded=0;labelBackgroundColor=none;fontSize=20;" vertex="1" parent="1">
                    <mxGeometry x="1096.25" y="-2500" width="360" height="180" as="geometry"/>
                </mxCell>
            </root>
        </mxGraphModel>
    </diagram>
</mxfile>